<?xml version="1.0" encoding="UTF-8"?>
<!DOCTYPE svg PUBLIC "-//W3C//DTD SVG 1.1//EN" "http://www.w3.org/Graphics/SVG/1.1/DTD/svg11.dtd">
<svg version="1.1" xmlns="http://www.w3.org/2000/svg" xmlns:xlink="http://www.w3.org/1999/xlink" x="0" y="0" width="260" height="150" viewBox="0, 0, 260, 150">
  <g id="Layer_2">
    <g id="esp8266">
      <g id="8pins">
        <path d="M154.5,54.5 L158,54.5 L158,56.833 L154.5,56.833 L154.5,54.5 z" fill="#AEAEAE"/>
        <path d="M154.5,59.9 L158,59.9 L158,62.233 L154.5,62.233 L154.5,59.9 z" fill="#AEAEAE"/>
        <path d="M154.5,65.3 L158,65.3 L158,67.633 L154.5,67.633 L154.5,65.3 z" fill="#AEAEAE"/>
        <path d="M154.5,70.7 L158,70.7 L158,73.033 L154.5,73.033 L154.5,70.7 z" fill="#AEAEAE"/>
        <path d="M154.5,76.1 L158,76.1 L158,78.433 L154.5,78.433 L154.5,76.1 z" fill="#AEAEAE"/>
        <path d="M154.5,81.5 L158,81.5 L158,83.833 L154.5,83.833 L154.5,81.5 z" fill="#AEAEAE"/>
        <path d="M154.5,86.9 L158,86.9 L158,89.233 L154.5,89.233 L154.5,86.9 z" fill="#AEAEAE"/>
        <path d="M154.5,92.5 L158,92.5 L158,94.833 L154.5,94.833 L154.5,92.5 z" fill="#AEAEAE"/>
      </g>
      <g id="8pins">
        <path d="M101,54.5 L104.5,54.5 L104.5,56.833 L101,56.833 L101,54.5 z" fill="#AEAEAE"/>
        <path d="M101,59.9 L104.5,59.9 L104.5,62.233 L101,62.233 L101,59.9 z" fill="#AEAEAE"/>
        <path d="M101,65.3 L104.5,65.3 L104.5,67.633 L101,67.633 L101,65.3 z" fill="#AEAEAE"/>
        <path d="M101,70.7 L104.5,70.7 L104.5,73.033 L101,73.033 L101,70.7 z" fill="#AEAEAE"/>
        <path d="M101,76.1 L104.5,76.1 L104.5,78.433 L101,78.433 L101,76.1 z" fill="#AEAEAE"/>
        <path d="M101,81.5 L104.5,81.5 L104.5,83.833 L101,83.833 L101,81.5 z" fill="#AEAEAE"/>
        <path d="M101,86.9 L104.5,86.9 L104.5,89.233 L101,89.233 L101,86.9 z" fill="#AEAEAE"/>
        <path d="M101,92.5 L104.5,92.5 L104.5,94.833 L101,94.833 L101,92.5 z" fill="#AEAEAE"/>
      </g>
      <g id="8pins">
        <path d="M109.333,103 L109.333,99.5 L111.667,99.5 L111.667,103 L109.333,103 z" fill="#AEAEAE"/>
        <path d="M114.733,103 L114.733,99.5 L117.067,99.5 L117.067,103 L114.733,103 z" fill="#AEAEAE"/>
        <path d="M120.133,103 L120.133,99.5 L122.467,99.5 L122.467,103 L120.133,103 z" fill="#AEAEAE"/>
        <path d="M125.533,103 L125.533,99.5 L127.867,99.5 L127.867,103 L125.533,103 z" fill="#AEAEAE"/>
        <path d="M130.933,103 L130.933,99.5 L133.267,99.5 L133.267,103 L130.933,103 z" fill="#AEAEAE"/>
        <path d="M136.333,103 L136.333,99.5 L138.667,99.5 L138.667,103 L136.333,103 z" fill="#AEAEAE"/>
        <path d="M141.733,103 L141.733,99.5 L144.067,99.5 L144.067,103 L141.733,103 z" fill="#AEAEAE"/>
        <path d="M147.333,103 L147.333,99.5 L149.667,99.5 L149.667,103 L147.333,103 z" fill="#AEAEAE"/>
      </g>
      <g id="8pins">
        <path d="M109.723,49.5 L109.723,46 L112.056,46 L112.056,49.5 L109.723,49.5 z" fill="#AEAEAE"/>
        <path d="M115.123,49.5 L115.123,46 L117.456,46 L117.456,49.5 L115.123,49.5 z" fill="#AEAEAE"/>
        <path d="M120.523,49.5 L120.523,46 L122.856,46 L122.856,49.5 L120.523,49.5 z" fill="#AEAEAE"/>
        <path d="M125.923,49.5 L125.923,46 L128.256,46 L128.256,49.5 L125.923,49.5 z" fill="#AEAEAE"/>
        <path d="M131.323,49.5 L131.323,46 L133.656,46 L133.656,49.5 L131.323,49.5 z" fill="#AEAEAE"/>
        <path d="M136.723,49.5 L136.723,46 L139.056,46 L139.056,49.5 L136.723,49.5 z" fill="#AEAEAE"/>
        <path d="M142.123,49.5 L142.123,46 L144.456,46 L144.456,49.5 L142.123,49.5 z" fill="#AEAEAE"/>
        <path d="M147.723,49.5 L147.723,46 L150.056,46 L150.056,49.5 L147.723,49.5 z" fill="#AEAEAE"/>
      </g>
      <path d="M104.5,49.5 L154.5,49.5 L154.5,99.5 L104.5,99.5 L104.5,49.5 z" fill="#212121"/>
    </g>
  </g>
  <g id="Layer_1"/>
</svg>
