<?xml version="1.0" encoding="UTF-8"?>
<!DOCTYPE svg PUBLIC "-//W3C//DTD SVG 1.1//EN" "http://www.w3.org/Graphics/SVG/1.1/DTD/svg11.dtd">
<svg version="1.1" xmlns="http://www.w3.org/2000/svg" xmlns:xlink="http://www.w3.org/1999/xlink" x="0" y="0" width="260" height="150" viewBox="0, 0, 260, 150">
  <g id="Layer_2">
    <g id="7pins">
      <path d="M88.293,46.946 L88.293,43.446 L90.626,43.446 L90.626,46.946 L88.293,46.946 z" fill="#AEAEAE"/>
      <path d="M93.693,46.946 L93.693,43.446 L96.026,43.446 L96.026,46.946 L93.693,46.946 z" fill="#AEAEAE"/>
      <path d="M99.093,46.946 L99.093,43.446 L101.426,43.446 L101.426,46.946 L99.093,46.946 z" fill="#AEAEAE"/>
      <path d="M104.493,46.946 L104.493,43.446 L106.826,43.446 L106.826,46.946 L104.493,46.946 z" fill="#AEAEAE"/>
      <path d="M109.893,46.946 L109.893,43.446 L112.226,43.446 L112.226,46.946 L109.893,46.946 z" fill="#AEAEAE"/>
      <path d="M115.293,46.946 L115.293,43.446 L117.626,43.446 L117.626,46.946 L115.293,46.946 z" fill="#AEAEAE"/>
      <path d="M120.693,46.946 L120.693,43.446 L123.026,43.446 L123.026,46.946 L120.693,46.946 z" fill="#AEAEAE"/>
    </g>
    <g id="7pins">
      <path d="M88.293,100.446 L88.293,96.946 L90.626,96.946 L90.626,100.446 L88.293,100.446 z" fill="#AEAEAE"/>
      <path d="M93.693,100.446 L93.693,96.946 L96.026,96.946 L96.026,100.446 L93.693,100.446 z" fill="#AEAEAE"/>
      <path d="M99.093,100.446 L99.093,96.946 L101.426,96.946 L101.426,100.446 L99.093,100.446 z" fill="#AEAEAE"/>
      <path d="M104.493,100.446 L104.493,96.946 L106.826,96.946 L106.826,100.446 L104.493,100.446 z" fill="#AEAEAE"/>
      <path d="M109.893,100.446 L109.893,96.946 L112.226,96.946 L112.226,100.446 L109.893,100.446 z" fill="#AEAEAE"/>
      <path d="M115.293,100.446 L115.293,96.946 L117.626,96.946 L117.626,100.446 L115.293,100.446 z" fill="#AEAEAE"/>
      <path d="M120.693,100.446 L120.693,96.946 L123.026,96.946 L123.026,100.446 L120.693,100.446 z" fill="#AEAEAE"/>
    </g>
    <g id="7pins">
      <path d="M80.66,89.312 L77.16,89.312 L77.16,86.979 L80.66,86.979 L80.66,89.312 z" fill="#AEAEAE"/>
      <path d="M80.66,83.912 L77.16,83.912 L77.16,81.579 L80.66,81.579 L80.66,83.912 z" fill="#AEAEAE"/>
      <path d="M80.66,78.512 L77.16,78.512 L77.16,76.179 L80.66,76.179 L80.66,78.512 z" fill="#AEAEAE"/>
      <path d="M80.66,73.112 L77.16,73.112 L77.16,70.779 L80.66,70.779 L80.66,73.112 z" fill="#AEAEAE"/>
      <path d="M80.66,67.712 L77.16,67.712 L77.16,65.379 L80.66,65.379 L80.66,67.712 z" fill="#AEAEAE"/>
      <path d="M80.66,62.312 L77.16,62.312 L77.16,59.979 L80.66,59.979 L80.66,62.312 z" fill="#AEAEAE"/>
      <path d="M80.66,56.912 L77.16,56.912 L77.16,54.579 L80.66,54.579 L80.66,56.912 z" fill="#AEAEAE"/>
    </g>
    <g id="7pins">
      <path d="M134.16,89.312 L130.66,89.312 L130.66,86.979 L134.16,86.979 L134.16,89.312 z" fill="#AEAEAE"/>
      <path d="M134.16,83.912 L130.66,83.912 L130.66,81.579 L134.16,81.579 L134.16,83.912 z" fill="#AEAEAE"/>
      <path d="M134.16,78.512 L130.66,78.512 L130.66,76.179 L134.16,76.179 L134.16,78.512 z" fill="#AEAEAE"/>
      <path d="M134.16,73.112 L130.66,73.112 L130.66,70.779 L134.16,70.779 L134.16,73.112 z" fill="#AEAEAE"/>
      <path d="M134.16,67.712 L130.66,67.712 L130.66,65.379 L134.16,65.379 L134.16,67.712 z" fill="#AEAEAE"/>
      <path d="M134.16,62.312 L130.66,62.312 L130.66,59.979 L134.16,59.979 L134.16,62.312 z" fill="#AEAEAE"/>
      <path d="M134.16,56.912 L130.66,56.912 L130.66,54.579 L134.16,54.579 L134.16,56.912 z" fill="#AEAEAE"/>
    </g>
    <path d="M80.66,46.946 L130.66,46.946 L130.66,96.946 L80.66,96.946 L80.66,46.946 z" fill="#212121"/>
  </g>
</svg>
