<?xml version="1.0" encoding="UTF-8"?>
<!DOCTYPE svg PUBLIC "-//W3C//DTD SVG 1.1//EN" "http://www.w3.org/Graphics/SVG/1.1/DTD/svg11.dtd">
<svg version="1.1" xmlns="http://www.w3.org/2000/svg" xmlns:xlink="http://www.w3.org/1999/xlink" x="0" y="0" width="15" height="15" viewBox="0, 0, 15, 15">
  <g id="Layer_1">
    <path d="M3,0 L12,0 C13.657,0 15,1.343 15,3 L15,12 C15,13.657 13.657,15 12,15 L3,15 C1.343,15 0,13.657 0,12 L0,3 C0,1.343 1.343,0 3,0 z" fill="#BFBFBF"/>
    <path d="M10.5,10.976 C10.5,12.633 9.157,13.976 7.5,13.976 C5.843,13.976 4.5,12.633 4.5,10.976 L4.5,7.376 L10.5,7.376 L10.5,10.976 z" fill="#737373"/>
    <g>
      <path d="M7.5,11 C5.567,11 4,9.433 4,7.5 C4,5.567 5.567,4 7.5,4 C9.433,4 11,5.567 11,7.5 C11,9.433 9.433,11 7.5,11 z" fill="#EDEDED"/>
      <path d="M7.5,4 C9.433,4 11,5.567 11,7.5 C11,9.433 9.433,11 7.5,11 C5.567,11 4,9.433 4,7.5 C4,5.567 5.567,4 7.5,4 z M7.5,4.5 C5.843,4.5 4.5,5.843 4.5,7.5 C4.5,9.157 5.843,10.5 7.5,10.5 C9.157,10.5 10.5,9.157 10.5,7.5 C10.5,5.843 9.157,4.5 7.5,4.5 z" fill="#737373"/>
    </g>
  </g>
</svg>
