<?xml version="1.0" encoding="UTF-8"?>
<!DOCTYPE svg PUBLIC "-//W3C//DTD SVG 1.1//EN" "http://www.w3.org/Graphics/SVG/1.1/DTD/svg11.dtd">
<svg version="1.1" xmlns="http://www.w3.org/2000/svg" xmlns:xlink="http://www.w3.org/1999/xlink" x="0" y="0" width="260" height="150" viewBox="0, 0, 260, 150">
  <g id="Layer_1">
    <g>
      <path d="M5,-0 L255,-0 L255,150 L5,150 L5,-0 z" fill="#4A4A4A"/>
      <path d="M255,0 L255,150 L5,150 L5,0 L255,0 z M254,1 L6,1 L6,149 L254,149 L254,1 z" fill="#2C2C2C"/>
    </g>
    <g id="header">
      <g id="perf_male_square">
        <path d="M46.5,29.25 L55.5,29.25 C57.157,29.25 58.5,30.593 58.5,32.25 L58.5,41.25 C58.5,42.907 57.157,44.25 55.5,44.25 L46.5,44.25 C44.843,44.25 43.5,42.907 43.5,41.25 L43.5,32.25 C43.5,30.593 44.843,29.25 46.5,29.25 z" fill="#BFBFBF"/>
        <path d="M54,40.226 C54,41.883 52.657,43.226 51,43.226 C49.343,43.226 48,41.883 48,40.226 L48,36.626 L54,36.626 L54,40.226 z" fill="#737373"/>
        <g>
          <path d="M51,40.25 C49.067,40.25 47.5,38.683 47.5,36.75 C47.5,34.817 49.067,33.25 51,33.25 C52.933,33.25 54.5,34.817 54.5,36.75 C54.5,38.683 52.933,40.25 51,40.25 z" fill="#EDEDED"/>
          <path d="M51,33.25 C52.933,33.25 54.5,34.817 54.5,36.75 C54.5,38.683 52.933,40.25 51,40.25 C49.067,40.25 47.5,38.683 47.5,36.75 C47.5,34.817 49.067,33.25 51,33.25 z M51,33.75 C49.343,33.75 48,35.093 48,36.75 C48,38.407 49.343,39.75 51,39.75 C52.657,39.75 54,38.407 54,36.75 C54,35.093 52.657,33.75 51,33.75 z" fill="#737373"/>
        </g>
      </g>
      <g id="perf_male_square">
        <path d="M46.626,105.75 L55.626,105.75 C57.283,105.75 58.626,107.093 58.626,108.75 L58.626,117.75 C58.626,119.407 57.283,120.75 55.626,120.75 L46.626,120.75 C44.969,120.75 43.626,119.407 43.626,117.75 L43.626,108.75 C43.626,107.093 44.969,105.75 46.626,105.75 z" fill="#BFBFBF"/>
        <path d="M54.126,116.726 C54.126,118.383 52.783,119.726 51.126,119.726 C49.469,119.726 48.126,118.383 48.126,116.726 L48.126,113.126 L54.126,113.126 L54.126,116.726 z" fill="#737373"/>
        <g>
          <path d="M51.126,116.75 C49.193,116.75 47.626,115.183 47.626,113.25 C47.626,111.317 49.193,109.75 51.126,109.75 C53.059,109.75 54.626,111.317 54.626,113.25 C54.626,115.183 53.059,116.75 51.126,116.75 z" fill="#EDEDED"/>
          <path d="M51.126,109.75 C53.059,109.75 54.626,111.317 54.626,113.25 C54.626,115.183 53.059,116.75 51.126,116.75 C49.193,116.75 47.626,115.183 47.626,113.25 C47.626,111.317 49.193,109.75 51.126,109.75 z M51.126,110.25 C49.469,110.25 48.126,111.593 48.126,113.25 C48.126,114.907 49.469,116.25 51.126,116.25 C52.783,116.25 54.126,114.907 54.126,113.25 C54.126,111.593 52.783,110.25 51.126,110.25 z" fill="#737373"/>
        </g>
      </g>
      <g id="perf_male_circle">
        <path d="M51,69.75 C46.858,69.75 43.5,66.392 43.5,62.25 C43.5,58.108 46.858,54.75 51,54.75 C55.142,54.75 58.5,58.108 58.5,62.25 C58.5,66.392 55.142,69.75 51,69.75 z" fill="#BFBFBF"/>
        <path d="M54,65.726 C54,67.383 52.657,68.726 51,68.726 C49.343,68.726 48,67.383 48,65.726 L48,62.126 L54,62.126 L54,65.726 z" fill="#737373"/>
        <g>
          <path d="M51,65.75 C49.067,65.75 47.5,64.183 47.5,62.25 C47.5,60.317 49.067,58.75 51,58.75 C52.933,58.75 54.5,60.317 54.5,62.25 C54.5,64.183 52.933,65.75 51,65.75 z" fill="#EDEDED"/>
          <path d="M51,58.75 C52.933,58.75 54.5,60.317 54.5,62.25 C54.5,64.183 52.933,65.75 51,65.75 C49.067,65.75 47.5,64.183 47.5,62.25 C47.5,60.317 49.067,58.75 51,58.75 z M51,59.25 C49.343,59.25 48,60.593 48,62.25 C48,63.907 49.343,65.25 51,65.25 C52.657,65.25 54,63.907 54,62.25 C54,60.593 52.657,59.25 51,59.25 z" fill="#737373"/>
        </g>
      </g>
      <g id="perf_male_circle">
        <path d="M51,95.25 C46.858,95.25 43.5,91.892 43.5,87.75 C43.5,83.608 46.858,80.25 51,80.25 C55.142,80.25 58.5,83.608 58.5,87.75 C58.5,91.892 55.142,95.25 51,95.25 z" fill="#BFBFBF"/>
        <path d="M54,91.226 C54,92.883 52.657,94.226 51,94.226 C49.343,94.226 48,92.883 48,91.226 L48,87.626 L54,87.626 L54,91.226 z" fill="#737373"/>
        <g>
          <path d="M51,91.25 C49.067,91.25 47.5,89.683 47.5,87.75 C47.5,85.817 49.067,84.25 51,84.25 C52.933,84.25 54.5,85.817 54.5,87.75 C54.5,89.683 52.933,91.25 51,91.25 z" fill="#EDEDED"/>
          <path d="M51,84.25 C52.933,84.25 54.5,85.817 54.5,87.75 C54.5,89.683 52.933,91.25 51,91.25 C49.067,91.25 47.5,89.683 47.5,87.75 C47.5,85.817 49.067,84.25 51,84.25 z M51,84.75 C49.343,84.75 48,86.093 48,87.75 C48,89.407 49.343,90.75 51,90.75 C52.657,90.75 54,89.407 54,87.75 C54,86.093 52.657,84.75 51,84.75 z" fill="#737373"/>
        </g>
      </g>
      <g id="perf_male_circle">
        <path d="M26,44.25 C21.858,44.25 18.5,40.892 18.5,36.75 C18.5,32.608 21.858,29.25 26,29.25 C30.142,29.25 33.5,32.608 33.5,36.75 C33.5,40.892 30.142,44.25 26,44.25 z" fill="#BFBFBF"/>
        <path d="M29,40.226 C29,41.883 27.657,43.226 26,43.226 C24.343,43.226 23,41.883 23,40.226 L23,36.626 L29,36.626 L29,40.226 z" fill="#737373"/>
        <g>
          <path d="M26,40.25 C24.067,40.25 22.5,38.683 22.5,36.75 C22.5,34.817 24.067,33.25 26,33.25 C27.933,33.25 29.5,34.817 29.5,36.75 C29.5,38.683 27.933,40.25 26,40.25 z" fill="#EDEDED"/>
          <path d="M26,33.25 C27.933,33.25 29.5,34.817 29.5,36.75 C29.5,38.683 27.933,40.25 26,40.25 C24.067,40.25 22.5,38.683 22.5,36.75 C22.5,34.817 24.067,33.25 26,33.25 z M26,33.75 C24.343,33.75 23,35.093 23,36.75 C23,38.407 24.343,39.75 26,39.75 C27.657,39.75 29,38.407 29,36.75 C29,35.093 27.657,33.75 26,33.75 z" fill="#737373"/>
        </g>
      </g>
      <g id="perf_male_circle">
        <path d="M26,69.75 C21.858,69.75 18.5,66.392 18.5,62.25 C18.5,58.108 21.858,54.75 26,54.75 C30.142,54.75 33.5,58.108 33.5,62.25 C33.5,66.392 30.142,69.75 26,69.75 z" fill="#BFBFBF"/>
        <path d="M29,65.726 C29,67.383 27.657,68.726 26,68.726 C24.343,68.726 23,67.383 23,65.726 L23,62.126 L29,62.126 L29,65.726 z" fill="#737373"/>
        <g>
          <path d="M26,65.75 C24.067,65.75 22.5,64.183 22.5,62.25 C22.5,60.317 24.067,58.75 26,58.75 C27.933,58.75 29.5,60.317 29.5,62.25 C29.5,64.183 27.933,65.75 26,65.75 z" fill="#EDEDED"/>
          <path d="M26,58.75 C27.933,58.75 29.5,60.317 29.5,62.25 C29.5,64.183 27.933,65.75 26,65.75 C24.067,65.75 22.5,64.183 22.5,62.25 C22.5,60.317 24.067,58.75 26,58.75 z M26,59.25 C24.343,59.25 23,60.593 23,62.25 C23,63.907 24.343,65.25 26,65.25 C27.657,65.25 29,63.907 29,62.25 C29,60.593 27.657,59.25 26,59.25 z" fill="#737373"/>
        </g>
      </g>
      <g id="perf_male_circle">
        <path d="M26,95.25 C21.858,95.25 18.5,91.892 18.5,87.75 C18.5,83.608 21.858,80.25 26,80.25 C30.142,80.25 33.5,83.608 33.5,87.75 C33.5,91.892 30.142,95.25 26,95.25 z" fill="#BFBFBF"/>
        <path d="M29,91.226 C29,92.883 27.657,94.226 26,94.226 C24.343,94.226 23,92.883 23,91.226 L23,87.626 L29,87.626 L29,91.226 z" fill="#737373"/>
        <g>
          <path d="M26,91.25 C24.067,91.25 22.5,89.683 22.5,87.75 C22.5,85.817 24.067,84.25 26,84.25 C27.933,84.25 29.5,85.817 29.5,87.75 C29.5,89.683 27.933,91.25 26,91.25 z" fill="#EDEDED"/>
          <path d="M26,84.25 C27.933,84.25 29.5,85.817 29.5,87.75 C29.5,89.683 27.933,91.25 26,91.25 C24.067,91.25 22.5,89.683 22.5,87.75 C22.5,85.817 24.067,84.25 26,84.25 z M26,84.75 C24.343,84.75 23,86.093 23,87.75 C23,89.407 24.343,90.75 26,90.75 C27.657,90.75 29,89.407 29,87.75 C29,86.093 27.657,84.75 26,84.75 z" fill="#737373"/>
        </g>
      </g>
      <g id="perf_male_circle">
        <path d="M26,120.75 C21.858,120.75 18.5,117.392 18.5,113.25 C18.5,109.108 21.858,105.75 26,105.75 C30.142,105.75 33.5,109.108 33.5,113.25 C33.5,117.392 30.142,120.75 26,120.75 z" fill="#BFBFBF"/>
        <path d="M29,116.726 C29,118.383 27.657,119.726 26,119.726 C24.343,119.726 23,118.383 23,116.726 L23,113.126 L29,113.126 L29,116.726 z" fill="#737373"/>
        <g>
          <path d="M26,116.75 C24.067,116.75 22.5,115.183 22.5,113.25 C22.5,111.317 24.067,109.75 26,109.75 C27.933,109.75 29.5,111.317 29.5,113.25 C29.5,115.183 27.933,116.75 26,116.75 z" fill="#EDEDED"/>
          <path d="M26,109.75 C27.933,109.75 29.5,111.317 29.5,113.25 C29.5,115.183 27.933,116.75 26,116.75 C24.067,116.75 22.5,115.183 22.5,113.25 C22.5,111.317 24.067,109.75 26,109.75 z M26,110.25 C24.343,110.25 23,111.593 23,113.25 C23,114.907 24.343,116.25 26,116.25 C27.657,116.25 29,114.907 29,113.25 C29,111.593 27.657,110.25 26,110.25 z" fill="#737373"/>
        </g>
      </g>
    </g>
    <g id="antenna">
      <path d="M240.5,15 L160.5,15" fill-opacity="0" stroke="#D3C12B" stroke-width="8"/>
      <path d="M240.5,11 L240.5,34" fill-opacity="0" stroke="#D3C12B" stroke-width="8"/>
      <path d="M240.5,30 L195.5,30" fill-opacity="0" stroke="#D3C12B" stroke-width="8"/>
      <path d="M195.5,26 L195.5,49" fill-opacity="0" stroke="#D3C12B" stroke-width="8"/>
      <path d="M240.5,45 L195.5,45" fill-opacity="0" stroke="#D3C12B" stroke-width="8"/>
      <path d="M240.5,41 L240.5,64" fill-opacity="0" stroke="#D3C12B" stroke-width="8"/>
      <path d="M240.5,60 L195.5,60" fill-opacity="0" stroke="#D3C12B" stroke-width="8"/>
      <path d="M195.5,56 L195.5,79" fill-opacity="0" stroke="#D3C12B" stroke-width="8"/>
      <path d="M240.5,75 L195.5,75" fill-opacity="0" stroke="#D3C12B" stroke-width="8"/>
      <path d="M240.5,71 L240.5,94" fill-opacity="0" stroke="#D3C12B" stroke-width="8"/>
      <path d="M240.5,90 L195.5,90" fill-opacity="0" stroke="#D3C12B" stroke-width="8"/>
      <path d="M195.609,86 L195.5,109" fill-opacity="0" stroke="#D3C12B" stroke-width="8"/>
      <path d="M240.5,105 L195.5,105" fill-opacity="0" stroke="#D3C12B" stroke-width="8"/>
      <path d="M240.5,101 L240.5,140" fill-opacity="0" stroke="#D3C12B" stroke-width="8"/>
      <path d="M160.5,11 L160.5,105" fill-opacity="0" stroke="#D3C12B" stroke-width="8"/>
    </g>
    <g id="esp8266">
      <g id="8pins">
        <path d="M134.132,25.742 L137.632,25.742 L137.632,28.076 L134.132,28.076 L134.132,25.742 z" fill="#AEAEAE"/>
        <path d="M134.132,31.142 L137.632,31.142 L137.632,33.476 L134.132,33.476 L134.132,31.142 z" fill="#AEAEAE"/>
        <path d="M134.132,36.542 L137.632,36.542 L137.632,38.876 L134.132,38.876 L134.132,36.542 z" fill="#AEAEAE"/>
        <path d="M134.132,41.942 L137.632,41.942 L137.632,44.276 L134.132,44.276 L134.132,41.942 z" fill="#AEAEAE"/>
        <path d="M134.132,47.342 L137.632,47.342 L137.632,49.676 L134.132,49.676 L134.132,47.342 z" fill="#AEAEAE"/>
        <path d="M134.132,52.742 L137.632,52.742 L137.632,55.076 L134.132,55.076 L134.132,52.742 z" fill="#AEAEAE"/>
        <path d="M134.132,58.142 L137.632,58.142 L137.632,60.476 L134.132,60.476 L134.132,58.142 z" fill="#AEAEAE"/>
        <path d="M134.132,63.742 L137.632,63.742 L137.632,66.076 L134.132,66.076 L134.132,63.742 z" fill="#AEAEAE"/>
      </g>
      <g id="8pins">
        <path d="M80.632,25.742 L84.132,25.742 L84.132,28.076 L80.632,28.076 L80.632,25.742 z" fill="#AEAEAE"/>
        <path d="M80.632,31.142 L84.132,31.142 L84.132,33.476 L80.632,33.476 L80.632,31.142 z" fill="#AEAEAE"/>
        <path d="M80.632,36.542 L84.132,36.542 L84.132,38.876 L80.632,38.876 L80.632,36.542 z" fill="#AEAEAE"/>
        <path d="M80.632,41.942 L84.132,41.942 L84.132,44.276 L80.632,44.276 L80.632,41.942 z" fill="#AEAEAE"/>
        <path d="M80.632,47.342 L84.132,47.342 L84.132,49.676 L80.632,49.676 L80.632,47.342 z" fill="#AEAEAE"/>
        <path d="M80.632,52.742 L84.132,52.742 L84.132,55.076 L80.632,55.076 L80.632,52.742 z" fill="#AEAEAE"/>
        <path d="M80.632,58.142 L84.132,58.142 L84.132,60.476 L80.632,60.476 L80.632,58.142 z" fill="#AEAEAE"/>
        <path d="M80.632,63.742 L84.132,63.742 L84.132,66.076 L80.632,66.076 L80.632,63.742 z" fill="#AEAEAE"/>
      </g>
      <g id="8pins">
        <path d="M88.965,74.242 L88.965,70.742 L91.298,70.742 L91.298,74.242 L88.965,74.242 z" fill="#AEAEAE"/>
        <path d="M94.365,74.242 L94.365,70.742 L96.698,70.742 L96.698,74.242 L94.365,74.242 z" fill="#AEAEAE"/>
        <path d="M99.765,74.242 L99.765,70.742 L102.098,70.742 L102.098,74.242 L99.765,74.242 z" fill="#AEAEAE"/>
        <path d="M105.165,74.242 L105.165,70.742 L107.498,70.742 L107.498,74.242 L105.165,74.242 z" fill="#AEAEAE"/>
        <path d="M110.565,74.242 L110.565,70.742 L112.898,70.742 L112.898,74.242 L110.565,74.242 z" fill="#AEAEAE"/>
        <path d="M115.965,74.242 L115.965,70.742 L118.298,70.742 L118.298,74.242 L115.965,74.242 z" fill="#AEAEAE"/>
        <path d="M121.365,74.242 L121.365,70.742 L123.698,70.742 L123.698,74.242 L121.365,74.242 z" fill="#AEAEAE"/>
        <path d="M126.965,74.242 L126.965,70.742 L129.298,70.742 L129.298,74.242 L126.965,74.242 z" fill="#AEAEAE"/>
      </g>
      <g id="8pins">
        <path d="M89.355,20.742 L89.355,17.242 L91.688,17.242 L91.688,20.742 L89.355,20.742 z" fill="#AEAEAE"/>
        <path d="M94.755,20.742 L94.755,17.242 L97.088,17.242 L97.088,20.742 L94.755,20.742 z" fill="#AEAEAE"/>
        <path d="M100.155,20.742 L100.155,17.242 L102.488,17.242 L102.488,20.742 L100.155,20.742 z" fill="#AEAEAE"/>
        <path d="M105.555,20.742 L105.555,17.242 L107.888,17.242 L107.888,20.742 L105.555,20.742 z" fill="#AEAEAE"/>
        <path d="M110.955,20.742 L110.955,17.242 L113.288,17.242 L113.288,20.742 L110.955,20.742 z" fill="#AEAEAE"/>
        <path d="M116.355,20.742 L116.355,17.242 L118.688,17.242 L118.688,20.742 L116.355,20.742 z" fill="#AEAEAE"/>
        <path d="M121.755,20.742 L121.755,17.242 L124.088,17.242 L124.088,20.742 L121.755,20.742 z" fill="#AEAEAE"/>
        <path d="M127.355,20.742 L127.355,17.242 L129.688,17.242 L129.688,20.742 L127.355,20.742 z" fill="#AEAEAE"/>
      </g>
      <path d="M84.132,20.742 L134.132,20.742 L134.132,70.742 L84.132,70.742 L84.132,20.742 z" fill="#212121"/>
    </g>
    <g id="8pin_ci">
      <g id="4_pin">
        <path d="M71.132,94.5 L84.132,94.5 L84.132,100 L71.132,100 L71.132,94.5 z" fill="#AEAEAE"/>
        <path d="M71.132,129 L84.132,129 L84.132,134.5 L71.132,134.5 L71.132,129 z" fill="#AEAEAE"/>
        <path d="M71.132,106 L84.132,106 L84.132,111.5 L71.132,111.5 L71.132,106 z" fill="#AEAEAE"/>
        <path d="M71.132,117.5 L84.132,117.5 L84.132,123 L71.132,123 L71.132,117.5 z" fill="#AEAEAE"/>
      </g>
      <g id="4_pin">
        <path d="M134.132,94.5 L147.132,94.5 L147.132,100 L134.132,100 L134.132,94.5 z" fill="#AEAEAE"/>
        <path d="M134.132,129 L147.132,129 L147.132,134.5 L134.132,134.5 L134.132,129 z" fill="#AEAEAE"/>
        <path d="M134.132,106 L147.132,106 L147.132,111.5 L134.132,111.5 L134.132,106 z" fill="#AEAEAE"/>
        <path d="M134.132,117.5 L147.132,117.5 L147.132,123 L134.132,123 L134.132,117.5 z" fill="#AEAEAE"/>
      </g>
      <path d="M84.132,89.5 L134.132,89.5 L134.132,139.5 L84.132,139.5 L84.132,89.5 z" fill="#212121"/>
    </g>
  </g>
</svg>
