<?xml version="1.0" encoding="UTF-8"?>
<!DOCTYPE svg PUBLIC "-//W3C//DTD SVG 1.1//EN" "http://www.w3.org/Graphics/SVG/1.1/DTD/svg11.dtd">
<svg version="1.1" xmlns="http://www.w3.org/2000/svg" xmlns:xlink="http://www.w3.org/1999/xlink" x="0" y="0" width="853" height="424" viewBox="0, 0, 853, 424">
  <g id="board">
    <g>
      <path d="M290.439,51.5 L562.561,51.5 C564.736,51.5 566.5,55.567 566.5,60.585 L566.5,363.415 C566.5,368.433 564.736,372.5 562.561,372.5 L290.439,372.5 C288.264,372.5 286.5,368.433 286.5,363.415 L286.5,60.585 C286.5,55.567 288.264,51.5 290.439,51.5 z" fill="#CCCCCC"/>
      <path d="M562.561,51.5 C564.736,51.5 566.5,55.567 566.5,60.585 L566.5,363.415 C566.5,368.433 564.736,372.5 562.561,372.5 L290.439,372.5 C288.264,372.5 286.5,368.433 286.5,363.415 L286.5,60.585 C286.5,55.567 288.264,51.5 290.439,51.5 L562.561,51.5 z M562.561,52.5 L290.439,52.5 C289.044,52.5 287.5,56.062 287.5,60.585 L287.5,363.415 C287.5,367.938 289.044,371.5 290.439,371.5 L562.561,371.5 C563.956,371.5 565.5,367.938 565.5,363.415 L565.5,60.585 C565.5,56.062 563.956,52.5 562.561,52.5 z" fill="#9F9F9F"/>
    </g>
    <path d="M301,199 L550,199 L550,225 L301,225 L301,199 z" fill="#9F9F9F"/>
    <g id="full_row">
      <g id="5_by_5">
        <g id="double_row">
          <g id="perf">
            <path d="M313,94.5 C317.142,94.5 320.5,97.838 320.5,101.957 L320.497,102 L305.503,102 L305.5,101.957 C305.5,97.838 308.858,94.5 313,94.5 z" fill="#B0B0B0"/>
            <path d="M313,109.5 C308.858,109.5 305.5,106.162 305.5,102.043 L305.503,102 L320.497,102 L320.5,102.043 C320.5,106.162 317.142,109.5 313,109.5 z" fill="#EDEDED"/>
            <path d="M313,107 C310.239,107 308,104.761 308,102 C308,99.239 310.239,97 313,97 C315.761,97 318,99.239 318,102 C318,104.761 315.761,107 313,107 z" fill="#2B2B2B"/>
          </g>
          <g id="perf">
            <path d="M313,69.5 C317.142,69.5 320.5,72.838 320.5,76.957 L320.497,77 L305.503,77 L305.5,76.957 C305.5,72.838 308.858,69.5 313,69.5 z" fill="#B0B0B0"/>
            <path d="M313,84.5 C308.858,84.5 305.5,81.162 305.5,77.043 L305.503,77 L320.497,77 L320.5,77.043 C320.5,81.162 317.142,84.5 313,84.5 z" fill="#EDEDED"/>
            <path d="M313,82 C310.239,82 308,79.761 308,77 C308,74.239 310.239,72 313,72 C315.761,72 318,74.239 318,77 C318,79.761 315.761,82 313,82 z" fill="#2B2B2B"/>
          </g>
          <g id="perf">
            <path d="M338,94.5 C342.142,94.5 345.5,97.838 345.5,101.957 L345.497,102 L330.503,102 L330.5,101.957 C330.5,97.838 333.858,94.5 338,94.5 z" fill="#B0B0B0"/>
            <path d="M338,109.5 C333.858,109.5 330.5,106.162 330.5,102.043 L330.503,102 L345.497,102 L345.5,102.043 C345.5,106.162 342.142,109.5 338,109.5 z" fill="#EDEDED"/>
            <path d="M338,107 C335.239,107 333,104.761 333,102 C333,99.239 335.239,97 338,97 C340.761,97 343,99.239 343,102 C343,104.761 340.761,107 338,107 z" fill="#2B2B2B"/>
          </g>
          <g id="perf">
            <path d="M338,69.5 C342.142,69.5 345.5,72.838 345.5,76.957 L345.497,77 L330.503,77 L330.5,76.957 C330.5,72.838 333.858,69.5 338,69.5 z" fill="#B0B0B0"/>
            <path d="M338,84.5 C333.858,84.5 330.5,81.162 330.5,77.043 L330.503,77 L345.497,77 L345.5,77.043 C345.5,81.162 342.142,84.5 338,84.5 z" fill="#EDEDED"/>
            <path d="M338,82 C335.239,82 333,79.761 333,77 C333,74.239 335.239,72 338,72 C340.761,72 343,74.239 343,77 C343,79.761 340.761,82 338,82 z" fill="#2B2B2B"/>
          </g>
          <g id="perf">
            <path d="M363,94.5 C367.142,94.5 370.5,97.838 370.5,101.957 L370.497,102 L355.503,102 L355.5,101.957 C355.5,97.838 358.858,94.5 363,94.5 z" fill="#B0B0B0"/>
            <path d="M363,109.5 C358.858,109.5 355.5,106.162 355.5,102.043 L355.503,102 L370.497,102 L370.5,102.043 C370.5,106.162 367.142,109.5 363,109.5 z" fill="#EDEDED"/>
            <path d="M363,107 C360.239,107 358,104.761 358,102 C358,99.239 360.239,97 363,97 C365.761,97 368,99.239 368,102 C368,104.761 365.761,107 363,107 z" fill="#2B2B2B"/>
          </g>
          <g id="perf">
            <path d="M363,69.5 C367.142,69.5 370.5,72.838 370.5,76.957 L370.497,77 L355.503,77 L355.5,76.957 C355.5,72.838 358.858,69.5 363,69.5 z" fill="#B0B0B0"/>
            <path d="M363,84.5 C358.858,84.5 355.5,81.162 355.5,77.043 L355.503,77 L370.497,77 L370.5,77.043 C370.5,81.162 367.142,84.5 363,84.5 z" fill="#EDEDED"/>
            <path d="M363,82 C360.239,82 358,79.761 358,77 C358,74.239 360.239,72 363,72 C365.761,72 368,74.239 368,77 C368,79.761 365.761,82 363,82 z" fill="#2B2B2B"/>
          </g>
          <g id="perf">
            <path d="M388,94.5 C392.142,94.5 395.5,97.838 395.5,101.957 L395.497,102 L380.503,102 L380.5,101.957 C380.5,97.838 383.858,94.5 388,94.5 z" fill="#B0B0B0"/>
            <path d="M388,109.5 C383.858,109.5 380.5,106.162 380.5,102.043 L380.503,102 L395.497,102 L395.5,102.043 C395.5,106.162 392.142,109.5 388,109.5 z" fill="#EDEDED"/>
            <path d="M388,107 C385.239,107 383,104.761 383,102 C383,99.239 385.239,97 388,97 C390.761,97 393,99.239 393,102 C393,104.761 390.761,107 388,107 z" fill="#2B2B2B"/>
          </g>
          <g id="perf">
            <path d="M388,69.5 C392.142,69.5 395.5,72.838 395.5,76.957 L395.497,77 L380.503,77 L380.5,76.957 C380.5,72.838 383.858,69.5 388,69.5 z" fill="#B0B0B0"/>
            <path d="M388,84.5 C383.858,84.5 380.5,81.162 380.5,77.043 L380.503,77 L395.497,77 L395.5,77.043 C395.5,81.162 392.142,84.5 388,84.5 z" fill="#EDEDED"/>
            <path d="M388,82 C385.239,82 383,79.761 383,77 C383,74.239 385.239,72 388,72 C390.761,72 393,74.239 393,77 C393,79.761 390.761,82 388,82 z" fill="#2B2B2B"/>
          </g>
          <g id="perf">
            <path d="M413,94.5 C417.142,94.5 420.5,97.838 420.5,101.957 L420.497,102 L405.503,102 L405.5,101.957 C405.5,97.838 408.858,94.5 413,94.5 z" fill="#B0B0B0"/>
            <path d="M413,109.5 C408.858,109.5 405.5,106.162 405.5,102.043 L405.503,102 L420.497,102 L420.5,102.043 C420.5,106.162 417.142,109.5 413,109.5 z" fill="#EDEDED"/>
            <path d="M413,107 C410.239,107 408,104.761 408,102 C408,99.239 410.239,97 413,97 C415.761,97 418,99.239 418,102 C418,104.761 415.761,107 413,107 z" fill="#2B2B2B"/>
          </g>
          <g id="perf">
            <path d="M413,69.5 C417.142,69.5 420.5,72.838 420.5,76.957 L420.497,77 L405.503,77 L405.5,76.957 C405.5,72.838 408.858,69.5 413,69.5 z" fill="#B0B0B0"/>
            <path d="M413,84.5 C408.858,84.5 405.5,81.162 405.5,77.043 L405.503,77 L420.497,77 L420.5,77.043 C420.5,81.162 417.142,84.5 413,84.5 z" fill="#EDEDED"/>
            <path d="M413,82 C410.239,82 408,79.761 408,77 C408,74.239 410.239,72 413,72 C415.761,72 418,74.239 418,77 C418,79.761 415.761,82 413,82 z" fill="#2B2B2B"/>
          </g>
        </g>
        <g id="double_row">
          <g id="perf">
            <path d="M313,144.5 C317.142,144.5 320.5,147.838 320.5,151.957 L320.497,152 L305.503,152 L305.5,151.957 C305.5,147.838 308.858,144.5 313,144.5 z" fill="#B0B0B0"/>
            <path d="M313,159.5 C308.858,159.5 305.5,156.162 305.5,152.043 L305.503,152 L320.497,152 L320.5,152.043 C320.5,156.162 317.142,159.5 313,159.5 z" fill="#EDEDED"/>
            <path d="M313,157 C310.239,157 308,154.761 308,152 C308,149.239 310.239,147 313,147 C315.761,147 318,149.239 318,152 C318,154.761 315.761,157 313,157 z" fill="#2B2B2B"/>
          </g>
          <g id="perf">
            <path d="M313,119.5 C317.142,119.5 320.5,122.838 320.5,126.957 L320.497,127 L305.503,127 L305.5,126.957 C305.5,122.838 308.858,119.5 313,119.5 z" fill="#B0B0B0"/>
            <path d="M313,134.5 C308.858,134.5 305.5,131.162 305.5,127.043 L305.503,127 L320.497,127 L320.5,127.043 C320.5,131.162 317.142,134.5 313,134.5 z" fill="#EDEDED"/>
            <path d="M313,132 C310.239,132 308,129.761 308,127 C308,124.239 310.239,122 313,122 C315.761,122 318,124.239 318,127 C318,129.761 315.761,132 313,132 z" fill="#2B2B2B"/>
          </g>
          <g id="perf">
            <path d="M338,144.5 C342.142,144.5 345.5,147.838 345.5,151.957 L345.497,152 L330.503,152 L330.5,151.957 C330.5,147.838 333.858,144.5 338,144.5 z" fill="#B0B0B0"/>
            <path d="M338,159.5 C333.858,159.5 330.5,156.162 330.5,152.043 L330.503,152 L345.497,152 L345.5,152.043 C345.5,156.162 342.142,159.5 338,159.5 z" fill="#EDEDED"/>
            <path d="M338,157 C335.239,157 333,154.761 333,152 C333,149.239 335.239,147 338,147 C340.761,147 343,149.239 343,152 C343,154.761 340.761,157 338,157 z" fill="#2B2B2B"/>
          </g>
          <g id="perf">
            <path d="M338,119.5 C342.142,119.5 345.5,122.838 345.5,126.957 L345.497,127 L330.503,127 L330.5,126.957 C330.5,122.838 333.858,119.5 338,119.5 z" fill="#B0B0B0"/>
            <path d="M338,134.5 C333.858,134.5 330.5,131.162 330.5,127.043 L330.503,127 L345.497,127 L345.5,127.043 C345.5,131.162 342.142,134.5 338,134.5 z" fill="#EDEDED"/>
            <path d="M338,132 C335.239,132 333,129.761 333,127 C333,124.239 335.239,122 338,122 C340.761,122 343,124.239 343,127 C343,129.761 340.761,132 338,132 z" fill="#2B2B2B"/>
          </g>
          <g id="perf">
            <path d="M363,144.5 C367.142,144.5 370.5,147.838 370.5,151.957 L370.497,152 L355.503,152 L355.5,151.957 C355.5,147.838 358.858,144.5 363,144.5 z" fill="#B0B0B0"/>
            <path d="M363,159.5 C358.858,159.5 355.5,156.162 355.5,152.043 L355.503,152 L370.497,152 L370.5,152.043 C370.5,156.162 367.142,159.5 363,159.5 z" fill="#EDEDED"/>
            <path d="M363,157 C360.239,157 358,154.761 358,152 C358,149.239 360.239,147 363,147 C365.761,147 368,149.239 368,152 C368,154.761 365.761,157 363,157 z" fill="#2B2B2B"/>
          </g>
          <g id="perf">
            <path d="M363,119.5 C367.142,119.5 370.5,122.838 370.5,126.957 L370.497,127 L355.503,127 L355.5,126.957 C355.5,122.838 358.858,119.5 363,119.5 z" fill="#B0B0B0"/>
            <path d="M363,134.5 C358.858,134.5 355.5,131.162 355.5,127.043 L355.503,127 L370.497,127 L370.5,127.043 C370.5,131.162 367.142,134.5 363,134.5 z" fill="#EDEDED"/>
            <path d="M363,132 C360.239,132 358,129.761 358,127 C358,124.239 360.239,122 363,122 C365.761,122 368,124.239 368,127 C368,129.761 365.761,132 363,132 z" fill="#2B2B2B"/>
          </g>
          <g id="perf">
            <path d="M388,144.5 C392.142,144.5 395.5,147.838 395.5,151.957 L395.497,152 L380.503,152 L380.5,151.957 C380.5,147.838 383.858,144.5 388,144.5 z" fill="#B0B0B0"/>
            <path d="M388,159.5 C383.858,159.5 380.5,156.162 380.5,152.043 L380.503,152 L395.497,152 L395.5,152.043 C395.5,156.162 392.142,159.5 388,159.5 z" fill="#EDEDED"/>
            <path d="M388,157 C385.239,157 383,154.761 383,152 C383,149.239 385.239,147 388,147 C390.761,147 393,149.239 393,152 C393,154.761 390.761,157 388,157 z" fill="#2B2B2B"/>
          </g>
          <g id="perf">
            <path d="M388,119.5 C392.142,119.5 395.5,122.838 395.5,126.957 L395.497,127 L380.503,127 L380.5,126.957 C380.5,122.838 383.858,119.5 388,119.5 z" fill="#B0B0B0"/>
            <path d="M388,134.5 C383.858,134.5 380.5,131.162 380.5,127.043 L380.503,127 L395.497,127 L395.5,127.043 C395.5,131.162 392.142,134.5 388,134.5 z" fill="#EDEDED"/>
            <path d="M388,132 C385.239,132 383,129.761 383,127 C383,124.239 385.239,122 388,122 C390.761,122 393,124.239 393,127 C393,129.761 390.761,132 388,132 z" fill="#2B2B2B"/>
          </g>
          <g id="perf">
            <path d="M413,144.5 C417.142,144.5 420.5,147.838 420.5,151.957 L420.497,152 L405.503,152 L405.5,151.957 C405.5,147.838 408.858,144.5 413,144.5 z" fill="#B0B0B0"/>
            <path d="M413,159.5 C408.858,159.5 405.5,156.162 405.5,152.043 L405.503,152 L420.497,152 L420.5,152.043 C420.5,156.162 417.142,159.5 413,159.5 z" fill="#EDEDED"/>
            <path d="M413,157 C410.239,157 408,154.761 408,152 C408,149.239 410.239,147 413,147 C415.761,147 418,149.239 418,152 C418,154.761 415.761,157 413,157 z" fill="#2B2B2B"/>
          </g>
          <g id="perf">
            <path d="M413,119.5 C417.142,119.5 420.5,122.838 420.5,126.957 L420.497,127 L405.503,127 L405.5,126.957 C405.5,122.838 408.858,119.5 413,119.5 z" fill="#B0B0B0"/>
            <path d="M413,134.5 C408.858,134.5 405.5,131.162 405.5,127.043 L405.503,127 L420.497,127 L420.5,127.043 C420.5,131.162 417.142,134.5 413,134.5 z" fill="#EDEDED"/>
            <path d="M413,132 C410.239,132 408,129.761 408,127 C408,124.239 410.239,122 413,122 C415.761,122 418,124.239 418,127 C418,129.761 415.761,132 413,132 z" fill="#2B2B2B"/>
          </g>
        </g>
        <g id="Single_row">
          <g id="perf">
            <path d="M313,169.5 C317.142,169.5 320.5,172.838 320.5,176.957 L320.497,177 L305.503,177 L305.5,176.957 C305.5,172.838 308.858,169.5 313,169.5 z" fill="#B0B0B0"/>
            <path d="M313,184.5 C308.858,184.5 305.5,181.162 305.5,177.043 L305.503,177 L320.497,177 L320.5,177.043 C320.5,181.162 317.142,184.5 313,184.5 z" fill="#EDEDED"/>
            <path d="M313,182 C310.239,182 308,179.761 308,177 C308,174.239 310.239,172 313,172 C315.761,172 318,174.239 318,177 C318,179.761 315.761,182 313,182 z" fill="#2B2B2B"/>
          </g>
          <g id="perf">
            <path d="M338,169.5 C342.142,169.5 345.5,172.838 345.5,176.957 L345.497,177 L330.503,177 L330.5,176.957 C330.5,172.838 333.858,169.5 338,169.5 z" fill="#B0B0B0"/>
            <path d="M338,184.5 C333.858,184.5 330.5,181.162 330.5,177.043 L330.503,177 L345.497,177 L345.5,177.043 C345.5,181.162 342.142,184.5 338,184.5 z" fill="#EDEDED"/>
            <path d="M338,182 C335.239,182 333,179.761 333,177 C333,174.239 335.239,172 338,172 C340.761,172 343,174.239 343,177 C343,179.761 340.761,182 338,182 z" fill="#2B2B2B"/>
          </g>
          <g id="perf">
            <path d="M363,169.5 C367.142,169.5 370.5,172.838 370.5,176.957 L370.497,177 L355.503,177 L355.5,176.957 C355.5,172.838 358.858,169.5 363,169.5 z" fill="#B0B0B0"/>
            <path d="M363,184.5 C358.858,184.5 355.5,181.162 355.5,177.043 L355.503,177 L370.497,177 L370.5,177.043 C370.5,181.162 367.142,184.5 363,184.5 z" fill="#EDEDED"/>
            <path d="M363,182 C360.239,182 358,179.761 358,177 C358,174.239 360.239,172 363,172 C365.761,172 368,174.239 368,177 C368,179.761 365.761,182 363,182 z" fill="#2B2B2B"/>
          </g>
          <g id="perf">
            <path d="M388,169.5 C392.142,169.5 395.5,172.838 395.5,176.957 L395.497,177 L380.503,177 L380.5,176.957 C380.5,172.838 383.858,169.5 388,169.5 z" fill="#B0B0B0"/>
            <path d="M388,184.5 C383.858,184.5 380.5,181.162 380.5,177.043 L380.503,177 L395.497,177 L395.5,177.043 C395.5,181.162 392.142,184.5 388,184.5 z" fill="#EDEDED"/>
            <path d="M388,182 C385.239,182 383,179.761 383,177 C383,174.239 385.239,172 388,172 C390.761,172 393,174.239 393,177 C393,179.761 390.761,182 388,182 z" fill="#2B2B2B"/>
          </g>
          <g id="perf">
            <path d="M413,169.5 C417.142,169.5 420.5,172.838 420.5,176.957 L420.497,177 L405.503,177 L405.5,176.957 C405.5,172.838 408.858,169.5 413,169.5 z" fill="#B0B0B0"/>
            <path d="M413,184.5 C408.858,184.5 405.5,181.162 405.5,177.043 L405.503,177 L420.497,177 L420.5,177.043 C420.5,181.162 417.142,184.5 413,184.5 z" fill="#EDEDED"/>
            <path d="M413,182 C410.239,182 408,179.761 408,177 C408,174.239 410.239,172 413,172 C415.761,172 418,174.239 418,177 C418,179.761 415.761,182 413,182 z" fill="#2B2B2B"/>
          </g>
        </g>
      </g>
      <g id="5_by_5">
        <g id="double_row">
          <g id="perf">
            <path d="M438,94.5 C442.142,94.5 445.5,97.838 445.5,101.957 L445.497,102 L430.503,102 L430.5,101.957 C430.5,97.838 433.858,94.5 438,94.5 z" fill="#B0B0B0"/>
            <path d="M438,109.5 C433.858,109.5 430.5,106.162 430.5,102.043 L430.503,102 L445.497,102 L445.5,102.043 C445.5,106.162 442.142,109.5 438,109.5 z" fill="#EDEDED"/>
            <path d="M438,107 C435.239,107 433,104.761 433,102 C433,99.239 435.239,97 438,97 C440.761,97 443,99.239 443,102 C443,104.761 440.761,107 438,107 z" fill="#2B2B2B"/>
          </g>
          <g id="perf">
            <path d="M438,69.5 C442.142,69.5 445.5,72.838 445.5,76.957 L445.497,77 L430.503,77 L430.5,76.957 C430.5,72.838 433.858,69.5 438,69.5 z" fill="#B0B0B0"/>
            <path d="M438,84.5 C433.858,84.5 430.5,81.162 430.5,77.043 L430.503,77 L445.497,77 L445.5,77.043 C445.5,81.162 442.142,84.5 438,84.5 z" fill="#EDEDED"/>
            <path d="M438,82 C435.239,82 433,79.761 433,77 C433,74.239 435.239,72 438,72 C440.761,72 443,74.239 443,77 C443,79.761 440.761,82 438,82 z" fill="#2B2B2B"/>
          </g>
          <g id="perf">
            <path d="M463,94.5 C467.142,94.5 470.5,97.838 470.5,101.957 L470.497,102 L455.503,102 L455.5,101.957 C455.5,97.838 458.858,94.5 463,94.5 z" fill="#B0B0B0"/>
            <path d="M463,109.5 C458.858,109.5 455.5,106.162 455.5,102.043 L455.503,102 L470.497,102 L470.5,102.043 C470.5,106.162 467.142,109.5 463,109.5 z" fill="#EDEDED"/>
            <path d="M463,107 C460.239,107 458,104.761 458,102 C458,99.239 460.239,97 463,97 C465.761,97 468,99.239 468,102 C468,104.761 465.761,107 463,107 z" fill="#2B2B2B"/>
          </g>
          <g id="perf">
            <path d="M463,69.5 C467.142,69.5 470.5,72.838 470.5,76.957 L470.497,77 L455.503,77 L455.5,76.957 C455.5,72.838 458.858,69.5 463,69.5 z" fill="#B0B0B0"/>
            <path d="M463,84.5 C458.858,84.5 455.5,81.162 455.5,77.043 L455.503,77 L470.497,77 L470.5,77.043 C470.5,81.162 467.142,84.5 463,84.5 z" fill="#EDEDED"/>
            <path d="M463,82 C460.239,82 458,79.761 458,77 C458,74.239 460.239,72 463,72 C465.761,72 468,74.239 468,77 C468,79.761 465.761,82 463,82 z" fill="#2B2B2B"/>
          </g>
          <g id="perf">
            <path d="M488,94.5 C492.142,94.5 495.5,97.838 495.5,101.957 L495.497,102 L480.503,102 L480.5,101.957 C480.5,97.838 483.858,94.5 488,94.5 z" fill="#B0B0B0"/>
            <path d="M488,109.5 C483.858,109.5 480.5,106.162 480.5,102.043 L480.503,102 L495.497,102 L495.5,102.043 C495.5,106.162 492.142,109.5 488,109.5 z" fill="#EDEDED"/>
            <path d="M488,107 C485.239,107 483,104.761 483,102 C483,99.239 485.239,97 488,97 C490.761,97 493,99.239 493,102 C493,104.761 490.761,107 488,107 z" fill="#2B2B2B"/>
          </g>
          <g id="perf">
            <path d="M488,69.5 C492.142,69.5 495.5,72.838 495.5,76.957 L495.497,77 L480.503,77 L480.5,76.957 C480.5,72.838 483.858,69.5 488,69.5 z" fill="#B0B0B0"/>
            <path d="M488,84.5 C483.858,84.5 480.5,81.162 480.5,77.043 L480.503,77 L495.497,77 L495.5,77.043 C495.5,81.162 492.142,84.5 488,84.5 z" fill="#EDEDED"/>
            <path d="M488,82 C485.239,82 483,79.761 483,77 C483,74.239 485.239,72 488,72 C490.761,72 493,74.239 493,77 C493,79.761 490.761,82 488,82 z" fill="#2B2B2B"/>
          </g>
          <g id="perf">
            <path d="M513,94.5 C517.142,94.5 520.5,97.838 520.5,101.957 L520.497,102 L505.503,102 L505.5,101.957 C505.5,97.838 508.858,94.5 513,94.5 z" fill="#B0B0B0"/>
            <path d="M513,109.5 C508.858,109.5 505.5,106.162 505.5,102.043 L505.503,102 L520.497,102 L520.5,102.043 C520.5,106.162 517.142,109.5 513,109.5 z" fill="#EDEDED"/>
            <path d="M513,107 C510.239,107 508,104.761 508,102 C508,99.239 510.239,97 513,97 C515.761,97 518,99.239 518,102 C518,104.761 515.761,107 513,107 z" fill="#2B2B2B"/>
          </g>
          <g id="perf">
            <path d="M513,69.5 C517.142,69.5 520.5,72.838 520.5,76.957 L520.497,77 L505.503,77 L505.5,76.957 C505.5,72.838 508.858,69.5 513,69.5 z" fill="#B0B0B0"/>
            <path d="M513,84.5 C508.858,84.5 505.5,81.162 505.5,77.043 L505.503,77 L520.497,77 L520.5,77.043 C520.5,81.162 517.142,84.5 513,84.5 z" fill="#EDEDED"/>
            <path d="M513,82 C510.239,82 508,79.761 508,77 C508,74.239 510.239,72 513,72 C515.761,72 518,74.239 518,77 C518,79.761 515.761,82 513,82 z" fill="#2B2B2B"/>
          </g>
          <g id="perf">
            <path d="M538,94.5 C542.142,94.5 545.5,97.838 545.5,101.957 L545.497,102 L530.503,102 L530.5,101.957 C530.5,97.838 533.858,94.5 538,94.5 z" fill="#B0B0B0"/>
            <path d="M538,109.5 C533.858,109.5 530.5,106.162 530.5,102.043 L530.503,102 L545.497,102 L545.5,102.043 C545.5,106.162 542.142,109.5 538,109.5 z" fill="#EDEDED"/>
            <path d="M538,107 C535.239,107 533,104.761 533,102 C533,99.239 535.239,97 538,97 C540.761,97 543,99.239 543,102 C543,104.761 540.761,107 538,107 z" fill="#2B2B2B"/>
          </g>
          <g id="perf">
            <path d="M538,69.5 C542.142,69.5 545.5,72.838 545.5,76.957 L545.497,77 L530.503,77 L530.5,76.957 C530.5,72.838 533.858,69.5 538,69.5 z" fill="#B0B0B0"/>
            <path d="M538,84.5 C533.858,84.5 530.5,81.162 530.5,77.043 L530.503,77 L545.497,77 L545.5,77.043 C545.5,81.162 542.142,84.5 538,84.5 z" fill="#EDEDED"/>
            <path d="M538,82 C535.239,82 533,79.761 533,77 C533,74.239 535.239,72 538,72 C540.761,72 543,74.239 543,77 C543,79.761 540.761,82 538,82 z" fill="#2B2B2B"/>
          </g>
        </g>
        <g id="double_row">
          <g id="perf">
            <path d="M438,144.5 C442.142,144.5 445.5,147.838 445.5,151.957 L445.497,152 L430.503,152 L430.5,151.957 C430.5,147.838 433.858,144.5 438,144.5 z" fill="#B0B0B0"/>
            <path d="M438,159.5 C433.858,159.5 430.5,156.162 430.5,152.043 L430.503,152 L445.497,152 L445.5,152.043 C445.5,156.162 442.142,159.5 438,159.5 z" fill="#EDEDED"/>
            <path d="M438,157 C435.239,157 433,154.761 433,152 C433,149.239 435.239,147 438,147 C440.761,147 443,149.239 443,152 C443,154.761 440.761,157 438,157 z" fill="#2B2B2B"/>
          </g>
          <g id="perf">
            <path d="M438,119.5 C442.142,119.5 445.5,122.838 445.5,126.957 L445.497,127 L430.503,127 L430.5,126.957 C430.5,122.838 433.858,119.5 438,119.5 z" fill="#B0B0B0"/>
            <path d="M438,134.5 C433.858,134.5 430.5,131.162 430.5,127.043 L430.503,127 L445.497,127 L445.5,127.043 C445.5,131.162 442.142,134.5 438,134.5 z" fill="#EDEDED"/>
            <path d="M438,132 C435.239,132 433,129.761 433,127 C433,124.239 435.239,122 438,122 C440.761,122 443,124.239 443,127 C443,129.761 440.761,132 438,132 z" fill="#2B2B2B"/>
          </g>
          <g id="perf">
            <path d="M463,144.5 C467.142,144.5 470.5,147.838 470.5,151.957 L470.497,152 L455.503,152 L455.5,151.957 C455.5,147.838 458.858,144.5 463,144.5 z" fill="#B0B0B0"/>
            <path d="M463,159.5 C458.858,159.5 455.5,156.162 455.5,152.043 L455.503,152 L470.497,152 L470.5,152.043 C470.5,156.162 467.142,159.5 463,159.5 z" fill="#EDEDED"/>
            <path d="M463,157 C460.239,157 458,154.761 458,152 C458,149.239 460.239,147 463,147 C465.761,147 468,149.239 468,152 C468,154.761 465.761,157 463,157 z" fill="#2B2B2B"/>
          </g>
          <g id="perf">
            <path d="M463,119.5 C467.142,119.5 470.5,122.838 470.5,126.957 L470.497,127 L455.503,127 L455.5,126.957 C455.5,122.838 458.858,119.5 463,119.5 z" fill="#B0B0B0"/>
            <path d="M463,134.5 C458.858,134.5 455.5,131.162 455.5,127.043 L455.503,127 L470.497,127 L470.5,127.043 C470.5,131.162 467.142,134.5 463,134.5 z" fill="#EDEDED"/>
            <path d="M463,132 C460.239,132 458,129.761 458,127 C458,124.239 460.239,122 463,122 C465.761,122 468,124.239 468,127 C468,129.761 465.761,132 463,132 z" fill="#2B2B2B"/>
          </g>
          <g id="perf">
            <path d="M488,144.5 C492.142,144.5 495.5,147.838 495.5,151.957 L495.497,152 L480.503,152 L480.5,151.957 C480.5,147.838 483.858,144.5 488,144.5 z" fill="#B0B0B0"/>
            <path d="M488,159.5 C483.858,159.5 480.5,156.162 480.5,152.043 L480.503,152 L495.497,152 L495.5,152.043 C495.5,156.162 492.142,159.5 488,159.5 z" fill="#EDEDED"/>
            <path d="M488,157 C485.239,157 483,154.761 483,152 C483,149.239 485.239,147 488,147 C490.761,147 493,149.239 493,152 C493,154.761 490.761,157 488,157 z" fill="#2B2B2B"/>
          </g>
          <g id="perf">
            <path d="M488,119.5 C492.142,119.5 495.5,122.838 495.5,126.957 L495.497,127 L480.503,127 L480.5,126.957 C480.5,122.838 483.858,119.5 488,119.5 z" fill="#B0B0B0"/>
            <path d="M488,134.5 C483.858,134.5 480.5,131.162 480.5,127.043 L480.503,127 L495.497,127 L495.5,127.043 C495.5,131.162 492.142,134.5 488,134.5 z" fill="#EDEDED"/>
            <path d="M488,132 C485.239,132 483,129.761 483,127 C483,124.239 485.239,122 488,122 C490.761,122 493,124.239 493,127 C493,129.761 490.761,132 488,132 z" fill="#2B2B2B"/>
          </g>
          <g id="perf">
            <path d="M513,144.5 C517.142,144.5 520.5,147.838 520.5,151.957 L520.497,152 L505.503,152 L505.5,151.957 C505.5,147.838 508.858,144.5 513,144.5 z" fill="#B0B0B0"/>
            <path d="M513,159.5 C508.858,159.5 505.5,156.162 505.5,152.043 L505.503,152 L520.497,152 L520.5,152.043 C520.5,156.162 517.142,159.5 513,159.5 z" fill="#EDEDED"/>
            <path d="M513,157 C510.239,157 508,154.761 508,152 C508,149.239 510.239,147 513,147 C515.761,147 518,149.239 518,152 C518,154.761 515.761,157 513,157 z" fill="#2B2B2B"/>
          </g>
          <g id="perf">
            <path d="M513,119.5 C517.142,119.5 520.5,122.838 520.5,126.957 L520.497,127 L505.503,127 L505.5,126.957 C505.5,122.838 508.858,119.5 513,119.5 z" fill="#B0B0B0"/>
            <path d="M513,134.5 C508.858,134.5 505.5,131.162 505.5,127.043 L505.503,127 L520.497,127 L520.5,127.043 C520.5,131.162 517.142,134.5 513,134.5 z" fill="#EDEDED"/>
            <path d="M513,132 C510.239,132 508,129.761 508,127 C508,124.239 510.239,122 513,122 C515.761,122 518,124.239 518,127 C518,129.761 515.761,132 513,132 z" fill="#2B2B2B"/>
          </g>
          <g id="perf">
            <path d="M538,144.5 C542.142,144.5 545.5,147.838 545.5,151.957 L545.497,152 L530.503,152 L530.5,151.957 C530.5,147.838 533.858,144.5 538,144.5 z" fill="#B0B0B0"/>
            <path d="M538,159.5 C533.858,159.5 530.5,156.162 530.5,152.043 L530.503,152 L545.497,152 L545.5,152.043 C545.5,156.162 542.142,159.5 538,159.5 z" fill="#EDEDED"/>
            <path d="M538,157 C535.239,157 533,154.761 533,152 C533,149.239 535.239,147 538,147 C540.761,147 543,149.239 543,152 C543,154.761 540.761,157 538,157 z" fill="#2B2B2B"/>
          </g>
          <g id="perf">
            <path d="M538,119.5 C542.142,119.5 545.5,122.838 545.5,126.957 L545.497,127 L530.503,127 L530.5,126.957 C530.5,122.838 533.858,119.5 538,119.5 z" fill="#B0B0B0"/>
            <path d="M538,134.5 C533.858,134.5 530.5,131.162 530.5,127.043 L530.503,127 L545.497,127 L545.5,127.043 C545.5,131.162 542.142,134.5 538,134.5 z" fill="#EDEDED"/>
            <path d="M538,132 C535.239,132 533,129.761 533,127 C533,124.239 535.239,122 538,122 C540.761,122 543,124.239 543,127 C543,129.761 540.761,132 538,132 z" fill="#2B2B2B"/>
          </g>
        </g>
        <g id="Single_row">
          <g id="perf">
            <path d="M438,169.5 C442.142,169.5 445.5,172.838 445.5,176.957 L445.497,177 L430.503,177 L430.5,176.957 C430.5,172.838 433.858,169.5 438,169.5 z" fill="#B0B0B0"/>
            <path d="M438,184.5 C433.858,184.5 430.5,181.162 430.5,177.043 L430.503,177 L445.497,177 L445.5,177.043 C445.5,181.162 442.142,184.5 438,184.5 z" fill="#EDEDED"/>
            <path d="M438,182 C435.239,182 433,179.761 433,177 C433,174.239 435.239,172 438,172 C440.761,172 443,174.239 443,177 C443,179.761 440.761,182 438,182 z" fill="#2B2B2B"/>
          </g>
          <g id="perf">
            <path d="M463,169.5 C467.142,169.5 470.5,172.838 470.5,176.957 L470.497,177 L455.503,177 L455.5,176.957 C455.5,172.838 458.858,169.5 463,169.5 z" fill="#B0B0B0"/>
            <path d="M463,184.5 C458.858,184.5 455.5,181.162 455.5,177.043 L455.503,177 L470.497,177 L470.5,177.043 C470.5,181.162 467.142,184.5 463,184.5 z" fill="#EDEDED"/>
            <path d="M463,182 C460.239,182 458,179.761 458,177 C458,174.239 460.239,172 463,172 C465.761,172 468,174.239 468,177 C468,179.761 465.761,182 463,182 z" fill="#2B2B2B"/>
          </g>
          <g id="perf">
            <path d="M488,169.5 C492.142,169.5 495.5,172.838 495.5,176.957 L495.497,177 L480.503,177 L480.5,176.957 C480.5,172.838 483.858,169.5 488,169.5 z" fill="#B0B0B0"/>
            <path d="M488,184.5 C483.858,184.5 480.5,181.162 480.5,177.043 L480.503,177 L495.497,177 L495.5,177.043 C495.5,181.162 492.142,184.5 488,184.5 z" fill="#EDEDED"/>
            <path d="M488,182 C485.239,182 483,179.761 483,177 C483,174.239 485.239,172 488,172 C490.761,172 493,174.239 493,177 C493,179.761 490.761,182 488,182 z" fill="#2B2B2B"/>
          </g>
          <g id="perf">
            <path d="M513,169.5 C517.142,169.5 520.5,172.838 520.5,176.957 L520.497,177 L505.503,177 L505.5,176.957 C505.5,172.838 508.858,169.5 513,169.5 z" fill="#B0B0B0"/>
            <path d="M513,184.5 C508.858,184.5 505.5,181.162 505.5,177.043 L505.503,177 L520.497,177 L520.5,177.043 C520.5,181.162 517.142,184.5 513,184.5 z" fill="#EDEDED"/>
            <path d="M513,182 C510.239,182 508,179.761 508,177 C508,174.239 510.239,172 513,172 C515.761,172 518,174.239 518,177 C518,179.761 515.761,182 513,182 z" fill="#2B2B2B"/>
          </g>
          <g id="perf">
            <path d="M538,169.5 C542.142,169.5 545.5,172.838 545.5,176.957 L545.497,177 L530.503,177 L530.5,176.957 C530.5,172.838 533.858,169.5 538,169.5 z" fill="#B0B0B0"/>
            <path d="M538,184.5 C533.858,184.5 530.5,181.162 530.5,177.043 L530.503,177 L545.497,177 L545.5,177.043 C545.5,181.162 542.142,184.5 538,184.5 z" fill="#EDEDED"/>
            <path d="M538,182 C535.239,182 533,179.761 533,177 C533,174.239 535.239,172 538,172 C540.761,172 543,174.239 543,177 C543,179.761 540.761,182 538,182 z" fill="#2B2B2B"/>
          </g>
        </g>
      </g>
    </g>
    <g id="full_row">
      <g id="5_by_5">
        <g id="double_row">
          <g id="perf">
            <path d="M313,265.5 C317.142,265.5 320.5,268.838 320.5,272.957 L320.497,273 L305.503,273 L305.5,272.957 C305.5,268.838 308.858,265.5 313,265.5 z" fill="#B0B0B0"/>
            <path d="M313,280.5 C308.858,280.5 305.5,277.162 305.5,273.043 L305.503,273 L320.497,273 L320.5,273.043 C320.5,277.162 317.142,280.5 313,280.5 z" fill="#EDEDED"/>
            <path d="M313,278 C310.239,278 308,275.761 308,273 C308,270.239 310.239,268 313,268 C315.761,268 318,270.239 318,273 C318,275.761 315.761,278 313,278 z" fill="#2B2B2B"/>
          </g>
          <g id="perf">
            <path d="M313,240.5 C317.142,240.5 320.5,243.838 320.5,247.957 L320.497,248 L305.503,248 L305.5,247.957 C305.5,243.838 308.858,240.5 313,240.5 z" fill="#B0B0B0"/>
            <path d="M313,255.5 C308.858,255.5 305.5,252.162 305.5,248.043 L305.503,248 L320.497,248 L320.5,248.043 C320.5,252.162 317.142,255.5 313,255.5 z" fill="#EDEDED"/>
            <path d="M313,253 C310.239,253 308,250.761 308,248 C308,245.239 310.239,243 313,243 C315.761,243 318,245.239 318,248 C318,250.761 315.761,253 313,253 z" fill="#2B2B2B"/>
          </g>
          <g id="perf">
            <path d="M338,265.5 C342.142,265.5 345.5,268.838 345.5,272.957 L345.497,273 L330.503,273 L330.5,272.957 C330.5,268.838 333.858,265.5 338,265.5 z" fill="#B0B0B0"/>
            <path d="M338,280.5 C333.858,280.5 330.5,277.162 330.5,273.043 L330.503,273 L345.497,273 L345.5,273.043 C345.5,277.162 342.142,280.5 338,280.5 z" fill="#EDEDED"/>
            <path d="M338,278 C335.239,278 333,275.761 333,273 C333,270.239 335.239,268 338,268 C340.761,268 343,270.239 343,273 C343,275.761 340.761,278 338,278 z" fill="#2B2B2B"/>
          </g>
          <g id="perf">
            <path d="M338,240.5 C342.142,240.5 345.5,243.838 345.5,247.957 L345.497,248 L330.503,248 L330.5,247.957 C330.5,243.838 333.858,240.5 338,240.5 z" fill="#B0B0B0"/>
            <path d="M338,255.5 C333.858,255.5 330.5,252.162 330.5,248.043 L330.503,248 L345.497,248 L345.5,248.043 C345.5,252.162 342.142,255.5 338,255.5 z" fill="#EDEDED"/>
            <path d="M338,253 C335.239,253 333,250.761 333,248 C333,245.239 335.239,243 338,243 C340.761,243 343,245.239 343,248 C343,250.761 340.761,253 338,253 z" fill="#2B2B2B"/>
          </g>
          <g id="perf">
            <path d="M363,265.5 C367.142,265.5 370.5,268.838 370.5,272.957 L370.497,273 L355.503,273 L355.5,272.957 C355.5,268.838 358.858,265.5 363,265.5 z" fill="#B0B0B0"/>
            <path d="M363,280.5 C358.858,280.5 355.5,277.162 355.5,273.043 L355.503,273 L370.497,273 L370.5,273.043 C370.5,277.162 367.142,280.5 363,280.5 z" fill="#EDEDED"/>
            <path d="M363,278 C360.239,278 358,275.761 358,273 C358,270.239 360.239,268 363,268 C365.761,268 368,270.239 368,273 C368,275.761 365.761,278 363,278 z" fill="#2B2B2B"/>
          </g>
          <g id="perf">
            <path d="M363,240.5 C367.142,240.5 370.5,243.838 370.5,247.957 L370.497,248 L355.503,248 L355.5,247.957 C355.5,243.838 358.858,240.5 363,240.5 z" fill="#B0B0B0"/>
            <path d="M363,255.5 C358.858,255.5 355.5,252.162 355.5,248.043 L355.503,248 L370.497,248 L370.5,248.043 C370.5,252.162 367.142,255.5 363,255.5 z" fill="#EDEDED"/>
            <path d="M363,253 C360.239,253 358,250.761 358,248 C358,245.239 360.239,243 363,243 C365.761,243 368,245.239 368,248 C368,250.761 365.761,253 363,253 z" fill="#2B2B2B"/>
          </g>
          <g id="perf">
            <path d="M388,265.5 C392.142,265.5 395.5,268.838 395.5,272.957 L395.497,273 L380.503,273 L380.5,272.957 C380.5,268.838 383.858,265.5 388,265.5 z" fill="#B0B0B0"/>
            <path d="M388,280.5 C383.858,280.5 380.5,277.162 380.5,273.043 L380.503,273 L395.497,273 L395.5,273.043 C395.5,277.162 392.142,280.5 388,280.5 z" fill="#EDEDED"/>
            <path d="M388,278 C385.239,278 383,275.761 383,273 C383,270.239 385.239,268 388,268 C390.761,268 393,270.239 393,273 C393,275.761 390.761,278 388,278 z" fill="#2B2B2B"/>
          </g>
          <g id="perf">
            <path d="M388,240.5 C392.142,240.5 395.5,243.838 395.5,247.957 L395.497,248 L380.503,248 L380.5,247.957 C380.5,243.838 383.858,240.5 388,240.5 z" fill="#B0B0B0"/>
            <path d="M388,255.5 C383.858,255.5 380.5,252.162 380.5,248.043 L380.503,248 L395.497,248 L395.5,248.043 C395.5,252.162 392.142,255.5 388,255.5 z" fill="#EDEDED"/>
            <path d="M388,253 C385.239,253 383,250.761 383,248 C383,245.239 385.239,243 388,243 C390.761,243 393,245.239 393,248 C393,250.761 390.761,253 388,253 z" fill="#2B2B2B"/>
          </g>
          <g id="perf">
            <path d="M413,265.5 C417.142,265.5 420.5,268.838 420.5,272.957 L420.497,273 L405.503,273 L405.5,272.957 C405.5,268.838 408.858,265.5 413,265.5 z" fill="#B0B0B0"/>
            <path d="M413,280.5 C408.858,280.5 405.5,277.162 405.5,273.043 L405.503,273 L420.497,273 L420.5,273.043 C420.5,277.162 417.142,280.5 413,280.5 z" fill="#EDEDED"/>
            <path d="M413,278 C410.239,278 408,275.761 408,273 C408,270.239 410.239,268 413,268 C415.761,268 418,270.239 418,273 C418,275.761 415.761,278 413,278 z" fill="#2B2B2B"/>
          </g>
          <g id="perf">
            <path d="M413,240.5 C417.142,240.5 420.5,243.838 420.5,247.957 L420.497,248 L405.503,248 L405.5,247.957 C405.5,243.838 408.858,240.5 413,240.5 z" fill="#B0B0B0"/>
            <path d="M413,255.5 C408.858,255.5 405.5,252.162 405.5,248.043 L405.503,248 L420.497,248 L420.5,248.043 C420.5,252.162 417.142,255.5 413,255.5 z" fill="#EDEDED"/>
            <path d="M413,253 C410.239,253 408,250.761 408,248 C408,245.239 410.239,243 413,243 C415.761,243 418,245.239 418,248 C418,250.761 415.761,253 413,253 z" fill="#2B2B2B"/>
          </g>
        </g>
        <g id="double_row">
          <g id="perf">
            <path d="M313,315.5 C317.142,315.5 320.5,318.838 320.5,322.957 L320.497,323 L305.503,323 L305.5,322.957 C305.5,318.838 308.858,315.5 313,315.5 z" fill="#B0B0B0"/>
            <path d="M313,330.5 C308.858,330.5 305.5,327.162 305.5,323.043 L305.503,323 L320.497,323 L320.5,323.043 C320.5,327.162 317.142,330.5 313,330.5 z" fill="#EDEDED"/>
            <path d="M313,328 C310.239,328 308,325.761 308,323 C308,320.239 310.239,318 313,318 C315.761,318 318,320.239 318,323 C318,325.761 315.761,328 313,328 z" fill="#2B2B2B"/>
          </g>
          <g id="perf">
            <path d="M313,290.5 C317.142,290.5 320.5,293.838 320.5,297.957 L320.497,298 L305.503,298 L305.5,297.957 C305.5,293.838 308.858,290.5 313,290.5 z" fill="#B0B0B0"/>
            <path d="M313,305.5 C308.858,305.5 305.5,302.162 305.5,298.043 L305.503,298 L320.497,298 L320.5,298.043 C320.5,302.162 317.142,305.5 313,305.5 z" fill="#EDEDED"/>
            <path d="M313,303 C310.239,303 308,300.761 308,298 C308,295.239 310.239,293 313,293 C315.761,293 318,295.239 318,298 C318,300.761 315.761,303 313,303 z" fill="#2B2B2B"/>
          </g>
          <g id="perf">
            <path d="M338,315.5 C342.142,315.5 345.5,318.838 345.5,322.957 L345.497,323 L330.503,323 L330.5,322.957 C330.5,318.838 333.858,315.5 338,315.5 z" fill="#B0B0B0"/>
            <path d="M338,330.5 C333.858,330.5 330.5,327.162 330.5,323.043 L330.503,323 L345.497,323 L345.5,323.043 C345.5,327.162 342.142,330.5 338,330.5 z" fill="#EDEDED"/>
            <path d="M338,328 C335.239,328 333,325.761 333,323 C333,320.239 335.239,318 338,318 C340.761,318 343,320.239 343,323 C343,325.761 340.761,328 338,328 z" fill="#2B2B2B"/>
          </g>
          <g id="perf">
            <path d="M338,290.5 C342.142,290.5 345.5,293.838 345.5,297.957 L345.497,298 L330.503,298 L330.5,297.957 C330.5,293.838 333.858,290.5 338,290.5 z" fill="#B0B0B0"/>
            <path d="M338,305.5 C333.858,305.5 330.5,302.162 330.5,298.043 L330.503,298 L345.497,298 L345.5,298.043 C345.5,302.162 342.142,305.5 338,305.5 z" fill="#EDEDED"/>
            <path d="M338,303 C335.239,303 333,300.761 333,298 C333,295.239 335.239,293 338,293 C340.761,293 343,295.239 343,298 C343,300.761 340.761,303 338,303 z" fill="#2B2B2B"/>
          </g>
          <g id="perf">
            <path d="M363,315.5 C367.142,315.5 370.5,318.838 370.5,322.957 L370.497,323 L355.503,323 L355.5,322.957 C355.5,318.838 358.858,315.5 363,315.5 z" fill="#B0B0B0"/>
            <path d="M363,330.5 C358.858,330.5 355.5,327.162 355.5,323.043 L355.503,323 L370.497,323 L370.5,323.043 C370.5,327.162 367.142,330.5 363,330.5 z" fill="#EDEDED"/>
            <path d="M363,328 C360.239,328 358,325.761 358,323 C358,320.239 360.239,318 363,318 C365.761,318 368,320.239 368,323 C368,325.761 365.761,328 363,328 z" fill="#2B2B2B"/>
          </g>
          <g id="perf">
            <path d="M363,290.5 C367.142,290.5 370.5,293.838 370.5,297.957 L370.497,298 L355.503,298 L355.5,297.957 C355.5,293.838 358.858,290.5 363,290.5 z" fill="#B0B0B0"/>
            <path d="M363,305.5 C358.858,305.5 355.5,302.162 355.5,298.043 L355.503,298 L370.497,298 L370.5,298.043 C370.5,302.162 367.142,305.5 363,305.5 z" fill="#EDEDED"/>
            <path d="M363,303 C360.239,303 358,300.761 358,298 C358,295.239 360.239,293 363,293 C365.761,293 368,295.239 368,298 C368,300.761 365.761,303 363,303 z" fill="#2B2B2B"/>
          </g>
          <g id="perf">
            <path d="M388,315.5 C392.142,315.5 395.5,318.838 395.5,322.957 L395.497,323 L380.503,323 L380.5,322.957 C380.5,318.838 383.858,315.5 388,315.5 z" fill="#B0B0B0"/>
            <path d="M388,330.5 C383.858,330.5 380.5,327.162 380.5,323.043 L380.503,323 L395.497,323 L395.5,323.043 C395.5,327.162 392.142,330.5 388,330.5 z" fill="#EDEDED"/>
            <path d="M388,328 C385.239,328 383,325.761 383,323 C383,320.239 385.239,318 388,318 C390.761,318 393,320.239 393,323 C393,325.761 390.761,328 388,328 z" fill="#2B2B2B"/>
          </g>
          <g id="perf">
            <path d="M388,290.5 C392.142,290.5 395.5,293.838 395.5,297.957 L395.497,298 L380.503,298 L380.5,297.957 C380.5,293.838 383.858,290.5 388,290.5 z" fill="#B0B0B0"/>
            <path d="M388,305.5 C383.858,305.5 380.5,302.162 380.5,298.043 L380.503,298 L395.497,298 L395.5,298.043 C395.5,302.162 392.142,305.5 388,305.5 z" fill="#EDEDED"/>
            <path d="M388,303 C385.239,303 383,300.761 383,298 C383,295.239 385.239,293 388,293 C390.761,293 393,295.239 393,298 C393,300.761 390.761,303 388,303 z" fill="#2B2B2B"/>
          </g>
          <g id="perf">
            <path d="M413,315.5 C417.142,315.5 420.5,318.838 420.5,322.957 L420.497,323 L405.503,323 L405.5,322.957 C405.5,318.838 408.858,315.5 413,315.5 z" fill="#B0B0B0"/>
            <path d="M413,330.5 C408.858,330.5 405.5,327.162 405.5,323.043 L405.503,323 L420.497,323 L420.5,323.043 C420.5,327.162 417.142,330.5 413,330.5 z" fill="#EDEDED"/>
            <path d="M413,328 C410.239,328 408,325.761 408,323 C408,320.239 410.239,318 413,318 C415.761,318 418,320.239 418,323 C418,325.761 415.761,328 413,328 z" fill="#2B2B2B"/>
          </g>
          <g id="perf">
            <path d="M413,290.5 C417.142,290.5 420.5,293.838 420.5,297.957 L420.497,298 L405.503,298 L405.5,297.957 C405.5,293.838 408.858,290.5 413,290.5 z" fill="#B0B0B0"/>
            <path d="M413,305.5 C408.858,305.5 405.5,302.162 405.5,298.043 L405.503,298 L420.497,298 L420.5,298.043 C420.5,302.162 417.142,305.5 413,305.5 z" fill="#EDEDED"/>
            <path d="M413,303 C410.239,303 408,300.761 408,298 C408,295.239 410.239,293 413,293 C415.761,293 418,295.239 418,298 C418,300.761 415.761,303 413,303 z" fill="#2B2B2B"/>
          </g>
        </g>
        <g id="Single_row">
          <g id="perf">
            <path d="M313,340.5 C317.142,340.5 320.5,343.838 320.5,347.957 L320.497,348 L305.503,348 L305.5,347.957 C305.5,343.838 308.858,340.5 313,340.5 z" fill="#B0B0B0"/>
            <path d="M313,355.5 C308.858,355.5 305.5,352.162 305.5,348.043 L305.503,348 L320.497,348 L320.5,348.043 C320.5,352.162 317.142,355.5 313,355.5 z" fill="#EDEDED"/>
            <path d="M313,353 C310.239,353 308,350.761 308,348 C308,345.239 310.239,343 313,343 C315.761,343 318,345.239 318,348 C318,350.761 315.761,353 313,353 z" fill="#2B2B2B"/>
          </g>
          <g id="perf">
            <path d="M338,340.5 C342.142,340.5 345.5,343.838 345.5,347.957 L345.497,348 L330.503,348 L330.5,347.957 C330.5,343.838 333.858,340.5 338,340.5 z" fill="#B0B0B0"/>
            <path d="M338,355.5 C333.858,355.5 330.5,352.162 330.5,348.043 L330.503,348 L345.497,348 L345.5,348.043 C345.5,352.162 342.142,355.5 338,355.5 z" fill="#EDEDED"/>
            <path d="M338,353 C335.239,353 333,350.761 333,348 C333,345.239 335.239,343 338,343 C340.761,343 343,345.239 343,348 C343,350.761 340.761,353 338,353 z" fill="#2B2B2B"/>
          </g>
          <g id="perf">
            <path d="M363,340.5 C367.142,340.5 370.5,343.838 370.5,347.957 L370.497,348 L355.503,348 L355.5,347.957 C355.5,343.838 358.858,340.5 363,340.5 z" fill="#B0B0B0"/>
            <path d="M363,355.5 C358.858,355.5 355.5,352.162 355.5,348.043 L355.503,348 L370.497,348 L370.5,348.043 C370.5,352.162 367.142,355.5 363,355.5 z" fill="#EDEDED"/>
            <path d="M363,353 C360.239,353 358,350.761 358,348 C358,345.239 360.239,343 363,343 C365.761,343 368,345.239 368,348 C368,350.761 365.761,353 363,353 z" fill="#2B2B2B"/>
          </g>
          <g id="perf">
            <path d="M388,340.5 C392.142,340.5 395.5,343.838 395.5,347.957 L395.497,348 L380.503,348 L380.5,347.957 C380.5,343.838 383.858,340.5 388,340.5 z" fill="#B0B0B0"/>
            <path d="M388,355.5 C383.858,355.5 380.5,352.162 380.5,348.043 L380.503,348 L395.497,348 L395.5,348.043 C395.5,352.162 392.142,355.5 388,355.5 z" fill="#EDEDED"/>
            <path d="M388,353 C385.239,353 383,350.761 383,348 C383,345.239 385.239,343 388,343 C390.761,343 393,345.239 393,348 C393,350.761 390.761,353 388,353 z" fill="#2B2B2B"/>
          </g>
          <g id="perf">
            <path d="M413,340.5 C417.142,340.5 420.5,343.838 420.5,347.957 L420.497,348 L405.503,348 L405.5,347.957 C405.5,343.838 408.858,340.5 413,340.5 z" fill="#B0B0B0"/>
            <path d="M413,355.5 C408.858,355.5 405.5,352.162 405.5,348.043 L405.503,348 L420.497,348 L420.5,348.043 C420.5,352.162 417.142,355.5 413,355.5 z" fill="#EDEDED"/>
            <path d="M413,353 C410.239,353 408,350.761 408,348 C408,345.239 410.239,343 413,343 C415.761,343 418,345.239 418,348 C418,350.761 415.761,353 413,353 z" fill="#2B2B2B"/>
          </g>
        </g>
      </g>
      <g id="5_by_5">
        <g id="double_row">
          <g id="perf">
            <path d="M438,265.5 C442.142,265.5 445.5,268.838 445.5,272.957 L445.497,273 L430.503,273 L430.5,272.957 C430.5,268.838 433.858,265.5 438,265.5 z" fill="#B0B0B0"/>
            <path d="M438,280.5 C433.858,280.5 430.5,277.162 430.5,273.043 L430.503,273 L445.497,273 L445.5,273.043 C445.5,277.162 442.142,280.5 438,280.5 z" fill="#EDEDED"/>
            <path d="M438,278 C435.239,278 433,275.761 433,273 C433,270.239 435.239,268 438,268 C440.761,268 443,270.239 443,273 C443,275.761 440.761,278 438,278 z" fill="#2B2B2B"/>
          </g>
          <g id="perf">
            <path d="M438,240.5 C442.142,240.5 445.5,243.838 445.5,247.957 L445.497,248 L430.503,248 L430.5,247.957 C430.5,243.838 433.858,240.5 438,240.5 z" fill="#B0B0B0"/>
            <path d="M438,255.5 C433.858,255.5 430.5,252.162 430.5,248.043 L430.503,248 L445.497,248 L445.5,248.043 C445.5,252.162 442.142,255.5 438,255.5 z" fill="#EDEDED"/>
            <path d="M438,253 C435.239,253 433,250.761 433,248 C433,245.239 435.239,243 438,243 C440.761,243 443,245.239 443,248 C443,250.761 440.761,253 438,253 z" fill="#2B2B2B"/>
          </g>
          <g id="perf">
            <path d="M463,265.5 C467.142,265.5 470.5,268.838 470.5,272.957 L470.497,273 L455.503,273 L455.5,272.957 C455.5,268.838 458.858,265.5 463,265.5 z" fill="#B0B0B0"/>
            <path d="M463,280.5 C458.858,280.5 455.5,277.162 455.5,273.043 L455.503,273 L470.497,273 L470.5,273.043 C470.5,277.162 467.142,280.5 463,280.5 z" fill="#EDEDED"/>
            <path d="M463,278 C460.239,278 458,275.761 458,273 C458,270.239 460.239,268 463,268 C465.761,268 468,270.239 468,273 C468,275.761 465.761,278 463,278 z" fill="#2B2B2B"/>
          </g>
          <g id="perf">
            <path d="M463,240.5 C467.142,240.5 470.5,243.838 470.5,247.957 L470.497,248 L455.503,248 L455.5,247.957 C455.5,243.838 458.858,240.5 463,240.5 z" fill="#B0B0B0"/>
            <path d="M463,255.5 C458.858,255.5 455.5,252.162 455.5,248.043 L455.503,248 L470.497,248 L470.5,248.043 C470.5,252.162 467.142,255.5 463,255.5 z" fill="#EDEDED"/>
            <path d="M463,253 C460.239,253 458,250.761 458,248 C458,245.239 460.239,243 463,243 C465.761,243 468,245.239 468,248 C468,250.761 465.761,253 463,253 z" fill="#2B2B2B"/>
          </g>
          <g id="perf">
            <path d="M488,265.5 C492.142,265.5 495.5,268.838 495.5,272.957 L495.497,273 L480.503,273 L480.5,272.957 C480.5,268.838 483.858,265.5 488,265.5 z" fill="#B0B0B0"/>
            <path d="M488,280.5 C483.858,280.5 480.5,277.162 480.5,273.043 L480.503,273 L495.497,273 L495.5,273.043 C495.5,277.162 492.142,280.5 488,280.5 z" fill="#EDEDED"/>
            <path d="M488,278 C485.239,278 483,275.761 483,273 C483,270.239 485.239,268 488,268 C490.761,268 493,270.239 493,273 C493,275.761 490.761,278 488,278 z" fill="#2B2B2B"/>
          </g>
          <g id="perf">
            <path d="M488,240.5 C492.142,240.5 495.5,243.838 495.5,247.957 L495.497,248 L480.503,248 L480.5,247.957 C480.5,243.838 483.858,240.5 488,240.5 z" fill="#B0B0B0"/>
            <path d="M488,255.5 C483.858,255.5 480.5,252.162 480.5,248.043 L480.503,248 L495.497,248 L495.5,248.043 C495.5,252.162 492.142,255.5 488,255.5 z" fill="#EDEDED"/>
            <path d="M488,253 C485.239,253 483,250.761 483,248 C483,245.239 485.239,243 488,243 C490.761,243 493,245.239 493,248 C493,250.761 490.761,253 488,253 z" fill="#2B2B2B"/>
          </g>
          <g id="perf">
            <path d="M513,265.5 C517.142,265.5 520.5,268.838 520.5,272.957 L520.497,273 L505.503,273 L505.5,272.957 C505.5,268.838 508.858,265.5 513,265.5 z" fill="#B0B0B0"/>
            <path d="M513,280.5 C508.858,280.5 505.5,277.162 505.5,273.043 L505.503,273 L520.497,273 L520.5,273.043 C520.5,277.162 517.142,280.5 513,280.5 z" fill="#EDEDED"/>
            <path d="M513,278 C510.239,278 508,275.761 508,273 C508,270.239 510.239,268 513,268 C515.761,268 518,270.239 518,273 C518,275.761 515.761,278 513,278 z" fill="#2B2B2B"/>
          </g>
          <g id="perf">
            <path d="M513,240.5 C517.142,240.5 520.5,243.838 520.5,247.957 L520.497,248 L505.503,248 L505.5,247.957 C505.5,243.838 508.858,240.5 513,240.5 z" fill="#B0B0B0"/>
            <path d="M513,255.5 C508.858,255.5 505.5,252.162 505.5,248.043 L505.503,248 L520.497,248 L520.5,248.043 C520.5,252.162 517.142,255.5 513,255.5 z" fill="#EDEDED"/>
            <path d="M513,253 C510.239,253 508,250.761 508,248 C508,245.239 510.239,243 513,243 C515.761,243 518,245.239 518,248 C518,250.761 515.761,253 513,253 z" fill="#2B2B2B"/>
          </g>
          <g id="perf">
            <path d="M538,265.5 C542.142,265.5 545.5,268.838 545.5,272.957 L545.497,273 L530.503,273 L530.5,272.957 C530.5,268.838 533.858,265.5 538,265.5 z" fill="#B0B0B0"/>
            <path d="M538,280.5 C533.858,280.5 530.5,277.162 530.5,273.043 L530.503,273 L545.497,273 L545.5,273.043 C545.5,277.162 542.142,280.5 538,280.5 z" fill="#EDEDED"/>
            <path d="M538,278 C535.239,278 533,275.761 533,273 C533,270.239 535.239,268 538,268 C540.761,268 543,270.239 543,273 C543,275.761 540.761,278 538,278 z" fill="#2B2B2B"/>
          </g>
          <g id="perf">
            <path d="M538,240.5 C542.142,240.5 545.5,243.838 545.5,247.957 L545.497,248 L530.503,248 L530.5,247.957 C530.5,243.838 533.858,240.5 538,240.5 z" fill="#B0B0B0"/>
            <path d="M538,255.5 C533.858,255.5 530.5,252.162 530.5,248.043 L530.503,248 L545.497,248 L545.5,248.043 C545.5,252.162 542.142,255.5 538,255.5 z" fill="#EDEDED"/>
            <path d="M538,253 C535.239,253 533,250.761 533,248 C533,245.239 535.239,243 538,243 C540.761,243 543,245.239 543,248 C543,250.761 540.761,253 538,253 z" fill="#2B2B2B"/>
          </g>
        </g>
        <g id="double_row">
          <g id="perf">
            <path d="M438,315.5 C442.142,315.5 445.5,318.838 445.5,322.957 L445.497,323 L430.503,323 L430.5,322.957 C430.5,318.838 433.858,315.5 438,315.5 z" fill="#B0B0B0"/>
            <path d="M438,330.5 C433.858,330.5 430.5,327.162 430.5,323.043 L430.503,323 L445.497,323 L445.5,323.043 C445.5,327.162 442.142,330.5 438,330.5 z" fill="#EDEDED"/>
            <path d="M438,328 C435.239,328 433,325.761 433,323 C433,320.239 435.239,318 438,318 C440.761,318 443,320.239 443,323 C443,325.761 440.761,328 438,328 z" fill="#2B2B2B"/>
          </g>
          <g id="perf">
            <path d="M438,290.5 C442.142,290.5 445.5,293.838 445.5,297.957 L445.497,298 L430.503,298 L430.5,297.957 C430.5,293.838 433.858,290.5 438,290.5 z" fill="#B0B0B0"/>
            <path d="M438,305.5 C433.858,305.5 430.5,302.162 430.5,298.043 L430.503,298 L445.497,298 L445.5,298.043 C445.5,302.162 442.142,305.5 438,305.5 z" fill="#EDEDED"/>
            <path d="M438,303 C435.239,303 433,300.761 433,298 C433,295.239 435.239,293 438,293 C440.761,293 443,295.239 443,298 C443,300.761 440.761,303 438,303 z" fill="#2B2B2B"/>
          </g>
          <g id="perf">
            <path d="M463,315.5 C467.142,315.5 470.5,318.838 470.5,322.957 L470.497,323 L455.503,323 L455.5,322.957 C455.5,318.838 458.858,315.5 463,315.5 z" fill="#B0B0B0"/>
            <path d="M463,330.5 C458.858,330.5 455.5,327.162 455.5,323.043 L455.503,323 L470.497,323 L470.5,323.043 C470.5,327.162 467.142,330.5 463,330.5 z" fill="#EDEDED"/>
            <path d="M463,328 C460.239,328 458,325.761 458,323 C458,320.239 460.239,318 463,318 C465.761,318 468,320.239 468,323 C468,325.761 465.761,328 463,328 z" fill="#2B2B2B"/>
          </g>
          <g id="perf">
            <path d="M463,290.5 C467.142,290.5 470.5,293.838 470.5,297.957 L470.497,298 L455.503,298 L455.5,297.957 C455.5,293.838 458.858,290.5 463,290.5 z" fill="#B0B0B0"/>
            <path d="M463,305.5 C458.858,305.5 455.5,302.162 455.5,298.043 L455.503,298 L470.497,298 L470.5,298.043 C470.5,302.162 467.142,305.5 463,305.5 z" fill="#EDEDED"/>
            <path d="M463,303 C460.239,303 458,300.761 458,298 C458,295.239 460.239,293 463,293 C465.761,293 468,295.239 468,298 C468,300.761 465.761,303 463,303 z" fill="#2B2B2B"/>
          </g>
          <g id="perf">
            <path d="M488,315.5 C492.142,315.5 495.5,318.838 495.5,322.957 L495.497,323 L480.503,323 L480.5,322.957 C480.5,318.838 483.858,315.5 488,315.5 z" fill="#B0B0B0"/>
            <path d="M488,330.5 C483.858,330.5 480.5,327.162 480.5,323.043 L480.503,323 L495.497,323 L495.5,323.043 C495.5,327.162 492.142,330.5 488,330.5 z" fill="#EDEDED"/>
            <path d="M488,328 C485.239,328 483,325.761 483,323 C483,320.239 485.239,318 488,318 C490.761,318 493,320.239 493,323 C493,325.761 490.761,328 488,328 z" fill="#2B2B2B"/>
          </g>
          <g id="perf">
            <path d="M488,290.5 C492.142,290.5 495.5,293.838 495.5,297.957 L495.497,298 L480.503,298 L480.5,297.957 C480.5,293.838 483.858,290.5 488,290.5 z" fill="#B0B0B0"/>
            <path d="M488,305.5 C483.858,305.5 480.5,302.162 480.5,298.043 L480.503,298 L495.497,298 L495.5,298.043 C495.5,302.162 492.142,305.5 488,305.5 z" fill="#EDEDED"/>
            <path d="M488,303 C485.239,303 483,300.761 483,298 C483,295.239 485.239,293 488,293 C490.761,293 493,295.239 493,298 C493,300.761 490.761,303 488,303 z" fill="#2B2B2B"/>
          </g>
          <g id="perf">
            <path d="M513,315.5 C517.142,315.5 520.5,318.838 520.5,322.957 L520.497,323 L505.503,323 L505.5,322.957 C505.5,318.838 508.858,315.5 513,315.5 z" fill="#B0B0B0"/>
            <path d="M513,330.5 C508.858,330.5 505.5,327.162 505.5,323.043 L505.503,323 L520.497,323 L520.5,323.043 C520.5,327.162 517.142,330.5 513,330.5 z" fill="#EDEDED"/>
            <path d="M513,328 C510.239,328 508,325.761 508,323 C508,320.239 510.239,318 513,318 C515.761,318 518,320.239 518,323 C518,325.761 515.761,328 513,328 z" fill="#2B2B2B"/>
          </g>
          <g id="perf">
            <path d="M513,290.5 C517.142,290.5 520.5,293.838 520.5,297.957 L520.497,298 L505.503,298 L505.5,297.957 C505.5,293.838 508.858,290.5 513,290.5 z" fill="#B0B0B0"/>
            <path d="M513,305.5 C508.858,305.5 505.5,302.162 505.5,298.043 L505.503,298 L520.497,298 L520.5,298.043 C520.5,302.162 517.142,305.5 513,305.5 z" fill="#EDEDED"/>
            <path d="M513,303 C510.239,303 508,300.761 508,298 C508,295.239 510.239,293 513,293 C515.761,293 518,295.239 518,298 C518,300.761 515.761,303 513,303 z" fill="#2B2B2B"/>
          </g>
          <g id="perf">
            <path d="M538,315.5 C542.142,315.5 545.5,318.838 545.5,322.957 L545.497,323 L530.503,323 L530.5,322.957 C530.5,318.838 533.858,315.5 538,315.5 z" fill="#B0B0B0"/>
            <path d="M538,330.5 C533.858,330.5 530.5,327.162 530.5,323.043 L530.503,323 L545.497,323 L545.5,323.043 C545.5,327.162 542.142,330.5 538,330.5 z" fill="#EDEDED"/>
            <path d="M538,328 C535.239,328 533,325.761 533,323 C533,320.239 535.239,318 538,318 C540.761,318 543,320.239 543,323 C543,325.761 540.761,328 538,328 z" fill="#2B2B2B"/>
          </g>
          <g id="perf">
            <path d="M538,290.5 C542.142,290.5 545.5,293.838 545.5,297.957 L545.497,298 L530.503,298 L530.5,297.957 C530.5,293.838 533.858,290.5 538,290.5 z" fill="#B0B0B0"/>
            <path d="M538,305.5 C533.858,305.5 530.5,302.162 530.5,298.043 L530.503,298 L545.497,298 L545.5,298.043 C545.5,302.162 542.142,305.5 538,305.5 z" fill="#EDEDED"/>
            <path d="M538,303 C535.239,303 533,300.761 533,298 C533,295.239 535.239,293 538,293 C540.761,293 543,295.239 543,298 C543,300.761 540.761,303 538,303 z" fill="#2B2B2B"/>
          </g>
        </g>
        <g id="Single_row">
          <g id="perf">
            <path d="M438,340.5 C442.142,340.5 445.5,343.838 445.5,347.957 L445.497,348 L430.503,348 L430.5,347.957 C430.5,343.838 433.858,340.5 438,340.5 z" fill="#B0B0B0"/>
            <path d="M438,355.5 C433.858,355.5 430.5,352.162 430.5,348.043 L430.503,348 L445.497,348 L445.5,348.043 C445.5,352.162 442.142,355.5 438,355.5 z" fill="#EDEDED"/>
            <path d="M438,353 C435.239,353 433,350.761 433,348 C433,345.239 435.239,343 438,343 C440.761,343 443,345.239 443,348 C443,350.761 440.761,353 438,353 z" fill="#2B2B2B"/>
          </g>
          <g id="perf">
            <path d="M463,340.5 C467.142,340.5 470.5,343.838 470.5,347.957 L470.497,348 L455.503,348 L455.5,347.957 C455.5,343.838 458.858,340.5 463,340.5 z" fill="#B0B0B0"/>
            <path d="M463,355.5 C458.858,355.5 455.5,352.162 455.5,348.043 L455.503,348 L470.497,348 L470.5,348.043 C470.5,352.162 467.142,355.5 463,355.5 z" fill="#EDEDED"/>
            <path d="M463,353 C460.239,353 458,350.761 458,348 C458,345.239 460.239,343 463,343 C465.761,343 468,345.239 468,348 C468,350.761 465.761,353 463,353 z" fill="#2B2B2B"/>
          </g>
          <g id="perf">
            <path d="M488,340.5 C492.142,340.5 495.5,343.838 495.5,347.957 L495.497,348 L480.503,348 L480.5,347.957 C480.5,343.838 483.858,340.5 488,340.5 z" fill="#B0B0B0"/>
            <path d="M488,355.5 C483.858,355.5 480.5,352.162 480.5,348.043 L480.503,348 L495.497,348 L495.5,348.043 C495.5,352.162 492.142,355.5 488,355.5 z" fill="#EDEDED"/>
            <path d="M488,353 C485.239,353 483,350.761 483,348 C483,345.239 485.239,343 488,343 C490.761,343 493,345.239 493,348 C493,350.761 490.761,353 488,353 z" fill="#2B2B2B"/>
          </g>
          <g id="perf">
            <path d="M513,340.5 C517.142,340.5 520.5,343.838 520.5,347.957 L520.497,348 L505.503,348 L505.5,347.957 C505.5,343.838 508.858,340.5 513,340.5 z" fill="#B0B0B0"/>
            <path d="M513,355.5 C508.858,355.5 505.5,352.162 505.5,348.043 L505.503,348 L520.497,348 L520.5,348.043 C520.5,352.162 517.142,355.5 513,355.5 z" fill="#EDEDED"/>
            <path d="M513,353 C510.239,353 508,350.761 508,348 C508,345.239 510.239,343 513,343 C515.761,343 518,345.239 518,348 C518,350.761 515.761,353 513,353 z" fill="#2B2B2B"/>
          </g>
          <g id="perf">
            <path d="M538,340.5 C542.142,340.5 545.5,343.838 545.5,347.957 L545.497,348 L530.503,348 L530.5,347.957 C530.5,343.838 533.858,340.5 538,340.5 z" fill="#B0B0B0"/>
            <path d="M538,355.5 C533.858,355.5 530.5,352.162 530.5,348.043 L530.503,348 L545.497,348 L545.5,348.043 C545.5,352.162 542.142,355.5 538,355.5 z" fill="#EDEDED"/>
            <path d="M538,353 C535.239,353 533,350.761 533,348 C533,345.239 535.239,343 538,343 C540.761,343 543,345.239 543,348 C543,350.761 540.761,353 538,353 z" fill="#2B2B2B"/>
          </g>
        </g>
      </g>
    </g>
  </g>
</svg>
