<?xml version="1.0" encoding="UTF-8"?>
<!DOCTYPE svg PUBLIC "-//W3C//DTD SVG 1.1//EN" "http://www.w3.org/Graphics/SVG/1.1/DTD/svg11.dtd">
<svg version="1.1" xmlns="http://www.w3.org/2000/svg" xmlns:xlink="http://www.w3.org/1999/xlink" x="0" y="0" width="500" height="200" viewBox="0, 0, 500, 200">
  <g id="Layer_1">
    <path d="M455,25 L455,175 L195,175 L195,25 L455,25 z M325,158.75 C322.239,158.75 320,160.989 320,163.75 C320,166.511 322.239,168.75 325,168.75 C327.761,168.75 330,166.511 330,163.75 C330,160.989 327.761,158.75 325,158.75 z M387.716,158.75 C384.955,158.75 382.716,160.989 382.716,163.75 C382.716,166.511 384.955,168.75 387.716,168.75 C390.477,168.75 392.716,166.511 392.716,163.75 C392.716,160.989 390.477,158.75 387.716,158.75 z M365.768,158.852 C363.309,159.57 362.028,161.249 361.776,163.75 C361.776,166.511 364.015,168.75 366.776,168.75 C369.537,168.75 371.776,166.511 371.776,163.75 C371.523,161.249 370.242,159.57 367.783,158.851 L366.776,158.75 L365.768,158.852 z M345.576,158.75 C342.815,158.75 340.576,160.989 340.576,163.75 C340.576,166.511 342.815,168.75 345.576,168.75 C348.337,168.75 350.576,166.511 350.576,163.75 C350.576,160.989 348.337,158.75 345.576,158.75 z M366.776,31.25 C364.015,31.25 361.776,33.489 361.776,36.25 C361.776,39.011 364.015,41.25 366.776,41.25 C369.537,41.25 371.776,39.011 371.776,36.25 C371.523,33.749 370.242,32.07 367.783,31.352 L366.776,31.25 z M345.576,31.25 C342.815,31.25 340.576,33.489 340.576,36.25 C340.576,39.011 342.815,41.25 345.576,41.25 C348.337,41.25 350.576,39.011 350.576,36.25 C350.576,33.489 348.337,31.25 345.576,31.25 z M325,31.25 C322.239,31.25 320,33.489 320,36.25 C320,39.011 322.239,41.25 325,41.25 C327.761,41.25 330,39.011 330,36.25 C330,33.489 327.761,31.25 325,31.25 z M387.716,31.25 C384.955,31.25 382.716,33.489 382.716,36.25 C382.716,39.011 384.955,41.25 387.716,41.25 C390.477,41.25 392.716,39.011 392.716,36.25 C392.716,33.489 390.477,31.25 387.716,31.25 z" fill="#111B4E"/>
    <path d="M235,40 L45,40 L45,160 L235,160 L235,40 z" fill="#AEAEAE"/>
    <path d="M115,61.503 L97,61.503 L97,79.503 L115,79.503 L115,61.503 z" fill="#4A4A4A"/>
    <path d="M115,120.497 L97,120.497 L97,138.497 L115,138.497 L115,120.497 z" fill="#4A4A4A"/>
    <g id="ci_smt_49pin">
      <g id="7pins">
        <path d="M315.994,75 L315.994,71.5 L318.327,71.5 L318.327,75 L315.994,75 z" fill="#AEAEAE"/>
        <path d="M321.394,75 L321.394,71.5 L323.727,71.5 L323.727,75 L321.394,75 z" fill="#AEAEAE"/>
        <path d="M326.794,75 L326.794,71.5 L329.127,71.5 L329.127,75 L326.794,75 z" fill="#AEAEAE"/>
        <path d="M332.194,75 L332.194,71.5 L334.527,71.5 L334.527,75 L332.194,75 z" fill="#AEAEAE"/>
        <path d="M337.594,75 L337.594,71.5 L339.927,71.5 L339.927,75 L337.594,75 z" fill="#AEAEAE"/>
        <path d="M342.994,75 L342.994,71.5 L345.327,71.5 L345.327,75 L342.994,75 z" fill="#AEAEAE"/>
        <path d="M348.394,75 L348.394,71.5 L350.727,71.5 L350.727,75 L348.394,75 z" fill="#AEAEAE"/>
      </g>
      <g id="7pins">
        <path d="M315.994,128.5 L315.994,125 L318.327,125 L318.327,128.5 L315.994,128.5 z" fill="#AEAEAE"/>
        <path d="M321.394,128.5 L321.394,125 L323.727,125 L323.727,128.5 L321.394,128.5 z" fill="#AEAEAE"/>
        <path d="M326.794,128.5 L326.794,125 L329.127,125 L329.127,128.5 L326.794,128.5 z" fill="#AEAEAE"/>
        <path d="M332.194,128.5 L332.194,125 L334.527,125 L334.527,128.5 L332.194,128.5 z" fill="#AEAEAE"/>
        <path d="M337.594,128.5 L337.594,125 L339.927,125 L339.927,128.5 L337.594,128.5 z" fill="#AEAEAE"/>
        <path d="M342.994,128.5 L342.994,125 L345.327,125 L345.327,128.5 L342.994,128.5 z" fill="#AEAEAE"/>
        <path d="M348.394,128.5 L348.394,125 L350.727,125 L350.727,128.5 L348.394,128.5 z" fill="#AEAEAE"/>
      </g>
      <g id="7pins">
        <path d="M308.361,117.366 L304.861,117.366 L304.861,115.033 L308.361,115.033 L308.361,117.366 z" fill="#AEAEAE"/>
        <path d="M308.361,111.966 L304.861,111.966 L304.861,109.633 L308.361,109.633 L308.361,111.966 z" fill="#AEAEAE"/>
        <path d="M308.361,106.566 L304.861,106.566 L304.861,104.233 L308.361,104.233 L308.361,106.566 z" fill="#AEAEAE"/>
        <path d="M308.361,101.166 L304.861,101.166 L304.861,98.833 L308.361,98.833 L308.361,101.166 z" fill="#AEAEAE"/>
        <path d="M308.361,95.766 L304.861,95.766 L304.861,93.433 L308.361,93.433 L308.361,95.766 z" fill="#AEAEAE"/>
        <path d="M308.361,90.366 L304.861,90.366 L304.861,88.033 L308.361,88.033 L308.361,90.366 z" fill="#AEAEAE"/>
        <path d="M308.361,84.966 L304.861,84.966 L304.861,82.633 L308.361,82.633 L308.361,84.966 z" fill="#AEAEAE"/>
      </g>
      <g id="7pins">
        <path d="M361.861,117.366 L358.361,117.366 L358.361,115.033 L361.861,115.033 L361.861,117.366 z" fill="#AEAEAE"/>
        <path d="M361.861,111.966 L358.361,111.966 L358.361,109.633 L361.861,109.633 L361.861,111.966 z" fill="#AEAEAE"/>
        <path d="M361.861,106.566 L358.361,106.566 L358.361,104.233 L361.861,104.233 L361.861,106.566 z" fill="#AEAEAE"/>
        <path d="M361.861,101.166 L358.361,101.166 L358.361,98.833 L361.861,98.833 L361.861,101.166 z" fill="#AEAEAE"/>
        <path d="M361.861,95.766 L358.361,95.766 L358.361,93.433 L361.861,93.433 L361.861,95.766 z" fill="#AEAEAE"/>
        <path d="M361.861,90.366 L358.361,90.366 L358.361,88.033 L361.861,88.033 L361.861,90.366 z" fill="#AEAEAE"/>
        <path d="M361.861,84.966 L358.361,84.966 L358.361,82.633 L361.861,82.633 L361.861,84.966 z" fill="#AEAEAE"/>
      </g>
      <path d="M308.361,75 L358.361,75 L358.361,125 L308.361,125 L308.361,75 z" fill="#212121"/>
    </g>
    <g id="header">
      <g id="perf_male_square">
        <path d="M439.676,54.25 L448.676,54.25 C450.333,54.25 451.676,55.593 451.676,57.25 L451.676,66.25 C451.676,67.907 450.333,69.25 448.676,69.25 L439.676,69.25 C438.019,69.25 436.676,67.907 436.676,66.25 L436.676,57.25 C436.676,55.593 438.019,54.25 439.676,54.25 z" fill="#BFBFBF"/>
        <path d="M447.176,65.226 C447.176,66.883 445.833,68.226 444.176,68.226 C442.519,68.226 441.176,66.883 441.176,65.226 L441.176,61.626 L447.176,61.626 L447.176,65.226 z" fill="#737373"/>
        <g>
          <path d="M444.176,65.25 C442.243,65.25 440.676,63.683 440.676,61.75 C440.676,59.817 442.243,58.25 444.176,58.25 C446.109,58.25 447.676,59.817 447.676,61.75 C447.676,63.683 446.109,65.25 444.176,65.25 z" fill="#EDEDED"/>
          <path d="M444.176,58.25 C446.109,58.25 447.676,59.817 447.676,61.75 C447.676,63.683 446.109,65.25 444.176,65.25 C442.243,65.25 440.676,63.683 440.676,61.75 C440.676,59.817 442.243,58.25 444.176,58.25 z M444.176,58.75 C442.519,58.75 441.176,60.093 441.176,61.75 C441.176,63.407 442.519,64.75 444.176,64.75 C445.833,64.75 447.176,63.407 447.176,61.75 C447.176,60.093 445.833,58.75 444.176,58.75 z" fill="#737373"/>
        </g>
      </g>
      <g id="perf_male_square">
        <path d="M439.676,130.75 L448.676,130.75 C450.333,130.75 451.676,132.093 451.676,133.75 L451.676,142.75 C451.676,144.407 450.333,145.75 448.676,145.75 L439.676,145.75 C438.019,145.75 436.676,144.407 436.676,142.75 L436.676,133.75 C436.676,132.093 438.019,130.75 439.676,130.75 z" fill="#BFBFBF"/>
        <path d="M447.176,141.726 C447.176,143.383 445.833,144.726 444.176,144.726 C442.519,144.726 441.176,143.383 441.176,141.726 L441.176,138.126 L447.176,138.126 L447.176,141.726 z" fill="#737373"/>
        <g>
          <path d="M444.176,141.75 C442.243,141.75 440.676,140.183 440.676,138.25 C440.676,136.317 442.243,134.75 444.176,134.75 C446.109,134.75 447.676,136.317 447.676,138.25 C447.676,140.183 446.109,141.75 444.176,141.75 z" fill="#EDEDED"/>
          <path d="M444.176,134.75 C446.109,134.75 447.676,136.317 447.676,138.25 C447.676,140.183 446.109,141.75 444.176,141.75 C442.243,141.75 440.676,140.183 440.676,138.25 C440.676,136.317 442.243,134.75 444.176,134.75 z M444.176,135.25 C442.519,135.25 441.176,136.593 441.176,138.25 C441.176,139.907 442.519,141.25 444.176,141.25 C445.833,141.25 447.176,139.907 447.176,138.25 C447.176,136.593 445.833,135.25 444.176,135.25 z" fill="#737373"/>
        </g>
      </g>
      <g id="perf_male_square">
        <path d="M439.676,79.75 L448.676,79.75 C450.333,79.75 451.676,81.093 451.676,82.75 L451.676,91.75 C451.676,93.407 450.333,94.75 448.676,94.75 L439.676,94.75 C438.019,94.75 436.676,93.407 436.676,91.75 L436.676,82.75 C436.676,81.093 438.019,79.75 439.676,79.75 z" fill="#BFBFBF"/>
        <path d="M447.176,90.726 C447.176,92.383 445.833,93.726 444.176,93.726 C442.519,93.726 441.176,92.383 441.176,90.726 L441.176,87.126 L447.176,87.126 L447.176,90.726 z" fill="#737373"/>
        <g>
          <path d="M444.176,90.75 C442.243,90.75 440.676,89.183 440.676,87.25 C440.676,85.317 442.243,83.75 444.176,83.75 C446.109,83.75 447.676,85.317 447.676,87.25 C447.676,89.183 446.109,90.75 444.176,90.75 z" fill="#EDEDED"/>
          <path d="M444.176,83.75 C446.109,83.75 447.676,85.317 447.676,87.25 C447.676,89.183 446.109,90.75 444.176,90.75 C442.243,90.75 440.676,89.183 440.676,87.25 C440.676,85.317 442.243,83.75 444.176,83.75 z M444.176,84.25 C442.519,84.25 441.176,85.593 441.176,87.25 C441.176,88.907 442.519,90.25 444.176,90.25 C445.833,90.25 447.176,88.907 447.176,87.25 C447.176,85.593 445.833,84.25 444.176,84.25 z" fill="#737373"/>
        </g>
      </g>
      <g id="perf_male_square">
        <path d="M439.676,105.25 L448.676,105.25 C450.333,105.25 451.676,106.593 451.676,108.25 L451.676,117.25 C451.676,118.907 450.333,120.25 448.676,120.25 L439.676,120.25 C438.019,120.25 436.676,118.907 436.676,117.25 L436.676,108.25 C436.676,106.593 438.019,105.25 439.676,105.25 z" fill="#BFBFBF"/>
        <path d="M447.176,116.226 C447.176,117.883 445.833,119.226 444.176,119.226 C442.519,119.226 441.176,117.883 441.176,116.226 L441.176,112.626 L447.176,112.626 L447.176,116.226 z" fill="#737373"/>
        <g>
          <path d="M444.176,116.25 C442.243,116.25 440.676,114.683 440.676,112.75 C440.676,110.817 442.243,109.25 444.176,109.25 C446.109,109.25 447.676,110.817 447.676,112.75 C447.676,114.683 446.109,116.25 444.176,116.25 z" fill="#EDEDED"/>
          <path d="M444.176,109.25 C446.109,109.25 447.676,110.817 447.676,112.75 C447.676,114.683 446.109,116.25 444.176,116.25 C442.243,116.25 440.676,114.683 440.676,112.75 C440.676,110.817 442.243,109.25 444.176,109.25 z M444.176,109.75 C442.519,109.75 441.176,111.093 441.176,112.75 C441.176,114.407 442.519,115.75 444.176,115.75 C445.833,115.75 447.176,114.407 447.176,112.75 C447.176,111.093 445.833,109.75 444.176,109.75 z" fill="#737373"/>
        </g>
      </g>
      <g id="perf_male_square">
        <path d="M439.676,156.25 L448.676,156.25 C450.333,156.25 451.676,157.593 451.676,159.25 L451.676,168.25 C451.676,169.907 450.333,171.25 448.676,171.25 L439.676,171.25 C438.019,171.25 436.676,169.907 436.676,168.25 L436.676,159.25 C436.676,157.593 438.019,156.25 439.676,156.25 z" fill="#BFBFBF"/>
        <path d="M447.176,167.226 C447.176,168.883 445.833,170.226 444.176,170.226 C442.519,170.226 441.176,168.883 441.176,167.226 L441.176,163.626 L447.176,163.626 L447.176,167.226 z" fill="#737373"/>
        <g>
          <path d="M444.176,167.25 C442.243,167.25 440.676,165.683 440.676,163.75 C440.676,161.817 442.243,160.25 444.176,160.25 C446.109,160.25 447.676,161.817 447.676,163.75 C447.676,165.683 446.109,167.25 444.176,167.25 z" fill="#EDEDED"/>
          <path d="M444.176,160.25 C446.109,160.25 447.676,161.817 447.676,163.75 C447.676,165.683 446.109,167.25 444.176,167.25 C442.243,167.25 440.676,165.683 440.676,163.75 C440.676,161.817 442.243,160.25 444.176,160.25 z M444.176,160.75 C442.519,160.75 441.176,162.093 441.176,163.75 C441.176,165.407 442.519,166.75 444.176,166.75 C445.833,166.75 447.176,165.407 447.176,163.75 C447.176,162.093 445.833,160.75 444.176,160.75 z" fill="#737373"/>
        </g>
      </g>
      <g id="perf_male_square">
        <path d="M439.676,28.75 L448.676,28.75 C450.333,28.75 451.676,30.093 451.676,31.75 L451.676,40.75 C451.676,42.407 450.333,43.75 448.676,43.75 L439.676,43.75 C438.019,43.75 436.676,42.407 436.676,40.75 L436.676,31.75 C436.676,30.093 438.019,28.75 439.676,28.75 z" fill="#BFBFBF"/>
        <path d="M447.176,39.726 C447.176,41.383 445.833,42.726 444.176,42.726 C442.519,42.726 441.176,41.383 441.176,39.726 L441.176,36.126 L447.176,36.126 L447.176,39.726 z" fill="#737373"/>
        <g>
          <path d="M444.176,39.75 C442.243,39.75 440.676,38.183 440.676,36.25 C440.676,34.317 442.243,32.75 444.176,32.75 C446.109,32.75 447.676,34.317 447.676,36.25 C447.676,38.183 446.109,39.75 444.176,39.75 z" fill="#EDEDED"/>
          <path d="M444.176,32.75 C446.109,32.75 447.676,34.317 447.676,36.25 C447.676,38.183 446.109,39.75 444.176,39.75 C442.243,39.75 440.676,38.183 440.676,36.25 C440.676,34.317 442.243,32.75 444.176,32.75 z M444.176,33.25 C442.519,33.25 441.176,34.593 441.176,36.25 C441.176,37.907 442.519,39.25 444.176,39.25 C445.833,39.25 447.176,37.907 447.176,36.25 C447.176,34.593 445.833,33.25 444.176,33.25 z" fill="#737373"/>
        </g>
      </g>
    </g>
    <g id="label">
      <text transform="matrix(1, 0, 0, 1, 423.624, 36)">
        <tspan x="-12.923" y="5" font-family="FiraCode-Regular" font-size="14" fill="#D6D6D6">DTR</tspan>
      </text>
      <text transform="matrix(1, 0, 0, 1, 423.753, 60.5)">
        <tspan x="-12.923" y="5" font-family="FiraCode-Regular" font-size="14" fill="#D6D6D6">RXD</tspan>
      </text>
      <text transform="matrix(1, 0, 0, 1, 423.753, 86.79)">
        <tspan x="-12.923" y="5" font-family="FiraCode-Regular" font-size="14" fill="#D6D6D6">TXD</tspan>
      </text>
      <text transform="matrix(1, 0, 0, 1, 423.753, 112.484)">
        <tspan x="-12.923" y="5" font-family="FiraCode-Regular" font-size="14" fill="#D6D6D6">+5V</tspan>
      </text>
      <text transform="matrix(1, 0, 0, 1, 423.624, 138.052)">
        <tspan x="-12.923" y="5" font-family="FiraCode-Regular" font-size="14" fill="#D6D6D6">GND</tspan>
      </text>
      <text transform="matrix(1, 0, 0, 1, 423.753, 164)">
        <tspan x="-12.923" y="5" font-family="FiraCode-Regular" font-size="14" fill="#D6D6D6">3V3</tspan>
      </text>
    </g>
    <g id="contacts">
      <g id="perf">
        <path d="M392.217,28.75 C393.874,28.75 395.217,30.093 395.217,31.75 L395.217,40.75 C395.217,42.407 393.874,43.75 392.217,43.75 L383.216,43.75 C381.56,43.75 380.217,42.407 380.217,40.75 L380.216,31.75 C380.217,30.093 381.56,28.75 383.217,28.75 L392.217,28.75 z M387.717,31.25 C384.956,31.25 382.717,33.489 382.717,36.25 C382.717,39.011 384.956,41.25 387.717,41.25 C390.478,41.25 392.717,39.011 392.717,36.25 C392.717,33.489 390.478,31.25 387.717,31.25 z" fill="#D3C12B"/>
      </g>
      <g id="perf">
        <path d="M366.776,28.75 C370.918,28.75 374.276,32.088 374.276,36.207 L374.273,36.25 L371.776,36.25 L371.776,36.25 C371.776,33.489 369.537,31.25 366.776,31.25 C364.015,31.25 361.776,33.489 361.776,36.25 L361.776,36.25 L359.279,36.25 L359.276,36.207 C359.276,32.088 362.634,28.75 366.776,28.75 z" fill="#D3C12B"/>
        <path d="M374.273,36.25 L374.276,36.293 C374.276,40.412 370.918,43.75 366.776,43.75 C362.634,43.75 359.276,40.412 359.276,36.293 L359.279,36.25 L361.776,36.25 C361.776,39.011 364.015,41.25 366.776,41.25 C369.537,41.25 371.776,39.011 371.776,36.25 L374.273,36.25 z" fill="#D3C12B"/>
      </g>
      <g id="perf">
        <path d="M345.576,28.75 C349.718,28.75 353.076,32.088 353.076,36.207 L353.073,36.25 L350.576,36.25 L350.576,36.25 C350.576,33.489 348.337,31.25 345.576,31.25 C342.815,31.25 340.576,33.489 340.576,36.25 L340.576,36.25 L338.079,36.25 L338.076,36.207 C338.076,32.088 341.434,28.75 345.576,28.75 z" fill="#D3C12B"/>
        <path d="M353.073,36.25 L353.076,36.293 C353.076,40.412 349.718,43.75 345.576,43.75 C341.434,43.75 338.076,40.412 338.076,36.293 L338.079,36.25 L340.576,36.25 C340.576,39.011 342.815,41.25 345.576,41.25 C348.337,41.25 350.576,39.011 350.576,36.25 L353.073,36.25 z" fill="#D3C12B"/>
      </g>
      <g id="perf">
        <path d="M325,28.75 C329.142,28.75 332.5,32.088 332.5,36.207 L332.497,36.25 L330,36.25 L330,36.25 C330,33.489 327.761,31.25 325,31.25 C322.239,31.25 320,33.489 320,36.25 L320,36.25 L317.503,36.25 L317.5,36.207 C317.5,32.088 320.858,28.75 325,28.75 z" fill="#D3C12B"/>
        <path d="M332.497,36.25 L332.5,36.293 C332.5,40.412 329.142,43.75 325,43.75 C320.858,43.75 317.5,40.412 317.5,36.293 L317.503,36.25 L320,36.25 C320,39.011 322.239,41.25 325,41.25 C327.761,41.25 330,39.011 330,36.25 L332.497,36.25 z" fill="#D3C12B"/>
      </g>
      <g id="perf">
        <path d="M392.217,156.25 C393.873,156.25 395.217,157.593 395.217,159.25 L395.217,168.25 C395.217,169.907 393.873,171.25 392.217,171.25 L383.216,171.25 C381.56,171.25 380.217,169.907 380.217,168.25 L380.216,159.25 C380.217,157.593 381.56,156.25 383.217,156.25 L392.217,156.25 z M387.717,158.75 C384.956,158.75 382.717,160.989 382.717,163.75 C382.717,166.511 384.956,168.75 387.717,168.75 C390.478,168.75 392.717,166.511 392.717,163.75 C392.717,160.989 390.478,158.75 387.717,158.75 z" fill="#D3C12B"/>
      </g>
      <g id="perf">
        <path d="M366.776,156.25 C370.918,156.25 374.276,159.588 374.276,163.707 L374.273,163.75 L371.776,163.75 L371.776,163.75 C371.776,160.989 369.537,158.75 366.776,158.75 C364.015,158.75 361.776,160.989 361.776,163.75 L361.776,163.75 L359.279,163.75 L359.276,163.707 C359.276,159.588 362.634,156.25 366.776,156.25 z" fill="#D3C12B"/>
        <path d="M374.273,163.75 L374.276,163.793 C374.276,167.912 370.918,171.25 366.776,171.25 C362.634,171.25 359.276,167.912 359.276,163.793 L359.279,163.75 L361.776,163.75 C361.776,166.511 364.015,168.75 366.776,168.75 C369.537,168.75 371.776,166.511 371.776,163.75 L374.273,163.75 z" fill="#D3C12B"/>
      </g>
      <g id="perf">
        <path d="M345.576,156.25 C349.718,156.25 353.076,159.588 353.076,163.707 L353.073,163.75 L350.576,163.75 L350.576,163.75 C350.576,160.989 348.337,158.75 345.576,158.75 C342.815,158.75 340.576,160.989 340.576,163.75 L340.576,163.75 L338.079,163.75 L338.076,163.707 C338.076,159.588 341.434,156.25 345.576,156.25 z" fill="#D3C12B"/>
        <path d="M353.073,163.75 L353.076,163.793 C353.076,167.912 349.718,171.25 345.576,171.25 C341.434,171.25 338.076,167.912 338.076,163.793 L338.079,163.75 L340.576,163.75 C340.576,166.511 342.815,168.75 345.576,168.75 C348.337,168.75 350.576,166.511 350.576,163.75 L353.073,163.75 z" fill="#D3C12B"/>
      </g>
      <g id="perf">
        <path d="M325,156.25 C329.142,156.25 332.5,159.588 332.5,163.707 L332.497,163.75 L330,163.75 L330,163.75 C330,160.989 327.761,158.75 325,158.75 C322.239,158.75 320,160.989 320,163.75 L320,163.75 L317.503,163.75 L317.5,163.707 C317.5,159.588 320.858,156.25 325,156.25 z" fill="#D3C12B"/>
        <path d="M332.497,163.75 L332.5,163.793 C332.5,167.912 329.142,171.25 325,171.25 C320.858,171.25 317.5,167.912 317.5,163.793 L317.503,163.75 L320,163.75 C320,166.511 322.239,168.75 325,168.75 C327.761,168.75 330,166.511 330,163.75 L332.497,163.75 z" fill="#D3C12B"/>
      </g>
    </g>
  </g>
</svg>
