<?xml version="1.0" encoding="UTF-8"?>
<!DOCTYPE svg PUBLIC "-//W3C//DTD SVG 1.1//EN" "http://www.w3.org/Graphics/SVG/1.1/DTD/svg11.dtd">
<svg version="1.1" xmlns="http://www.w3.org/2000/svg" xmlns:xlink="http://www.w3.org/1999/xlink" x="0" y="0" width="100" height="100" viewBox="0, 0, 100, 100">
  <g id="Layer_2">
    <g>
      <path d="M70,15.854 C70,12.548 72.238,9.869 75,9.869 C77.762,9.869 80,12.548 80,15.854 L80,23.037 L70,23.037 L70,15.854 z" fill="#AEAEAE"/>
      <path d="M75,9.869 C77.762,9.869 80,12.548 80,15.854 L80,23.037 L70,23.037 L70,15.854 C70,12.548 72.238,9.869 75,9.869 z M75,10.869 C72.834,10.869 71,13.065 71,15.854 L71,22.037 L79,22.037 L79,15.854 C79,13.065 77.166,10.869 75,10.869 z" fill="#505050"/>
    </g>
    <g>
      <path d="M20,15.854 C20,12.548 22.238,9.869 25,9.869 C27.762,9.869 30,12.548 30,15.854 L30,23.037 L20,23.037 L20,15.854 z" fill="#AEAEAE"/>
      <path d="M25,9.869 C27.762,9.869 30,12.548 30,15.854 L30,23.037 L20,23.037 L20,15.854 C20,12.548 22.238,9.869 25,9.869 z M25,10.869 C22.834,10.869 21,13.065 21,15.854 L21,22.037 L29,22.037 L29,15.854 C29,13.065 27.166,10.869 25,10.869 z" fill="#505050"/>
    </g>
    <g>
      <path d="M30,84.146 C30,87.452 27.762,90.131 25,90.131 C22.238,90.131 20,87.452 20,84.146 L20,76.963 L30,76.963 L30,84.146 z" fill="#AEAEAE"/>
      <path d="M30,76.963 L30,84.146 C30,87.452 27.762,90.131 25,90.131 C22.238,90.131 20,87.452 20,84.146 L20,76.963 L30,76.963 z M29,77.963 L21,77.963 L21,84.146 C21,86.935 22.834,89.131 25,89.131 C27.166,89.131 29,86.935 29,84.146 L29,77.963 z" fill="#505050"/>
    </g>
    <g>
      <path d="M80,84.146 C80,87.452 77.762,90.131 75,90.131 C72.238,90.131 70,87.452 70,84.146 L70,76.963 L80,76.963 L80,84.146 z" fill="#AEAEAE"/>
      <path d="M80,76.963 L80,84.146 C80,87.452 77.762,90.131 75,90.131 C72.238,90.131 70,87.452 70,84.146 L70,76.963 L80,76.963 z M79,77.963 L71,77.963 L71,84.146 C71,86.935 72.834,89.131 75,89.131 C77.166,89.131 79,86.935 79,84.146 L79,77.963 z" fill="#505050"/>
    </g>
    <g>
      <path d="M22.242,18.992 L77.758,18.992 C79.549,18.992 81,20.569 81,22.515 L81,77.468 C81,79.414 79.549,80.992 77.758,80.992 L22.242,80.992 C20.451,80.992 19,79.414 19,77.468 L19,22.515 C19,20.569 20.451,18.992 22.242,18.992 z" fill="#959595"/>
      <path d="M77.758,18.992 C79.549,18.992 81,20.569 81,22.515 L81,77.468 C81,79.414 79.549,80.992 77.758,80.992 L22.242,80.992 C20.451,80.992 19,79.414 19,77.468 L19,22.515 C19,20.569 20.451,18.992 22.242,18.992 L77.758,18.992 z M77.758,19.992 L22.242,19.992 C21.023,19.992 20,21.104 20,22.515 L20,77.468 C20,78.88 21.023,79.992 22.242,79.992 L77.758,79.992 C78.977,79.992 80,78.88 80,77.468 L80,22.515 C80,21.104 78.977,19.992 77.758,19.992 z" fill="#505050"/>
    </g>
    <g>
      <path d="M50,64.992 C41.716,64.992 35,58.276 35,49.992 C35,41.707 41.716,34.992 50,34.992 C58.284,34.992 65,41.707 65,49.992 C65,58.276 58.284,64.992 50,64.992 z" fill="#712222"/>
      <path d="M50,34.992 C58.284,34.992 65,41.707 65,49.992 C65,58.276 58.284,64.992 50,64.992 C41.716,64.992 35,58.276 35,49.992 C35,41.707 41.716,34.992 50,34.992 z M50,36.992 C42.82,36.992 37,42.812 37,49.992 C37,57.171 42.82,62.992 50,62.992 C57.18,62.992 63,57.171 63,49.992 C63,42.812 57.18,36.992 50,36.992 z" fill="#4D1919"/>
    </g>
    <path d="M29.5,33.992 C27.015,33.992 25,31.977 25,29.492 C25,27.006 27.015,24.992 29.5,24.992 C31.985,24.992 34,27.006 34,29.492 C34,31.977 31.985,33.992 29.5,33.992 z" fill="#505050"/>
    <path d="M70.5,33.992 C68.015,33.992 66,31.977 66,29.492 C66,27.006 68.015,24.992 70.5,24.992 C72.985,24.992 75,27.006 75,29.492 C75,31.977 72.985,33.992 70.5,33.992 z" fill="#505050"/>
    <path d="M70.5,74.992 C68.015,74.992 66,72.977 66,70.492 C66,68.006 68.015,65.992 70.5,65.992 C72.985,65.992 75,68.006 75,70.492 C75,72.977 72.985,74.992 70.5,74.992 z" fill="#505050"/>
    <path d="M29.5,74.992 C27.015,74.992 25,72.977 25,70.492 C25,68.006 27.015,65.992 29.5,65.992 C31.985,65.992 34,68.006 34,70.492 C34,72.977 31.985,74.992 29.5,74.992 z" fill="#505050"/>
  </g>
</svg>
