<?xml version="1.0" encoding="UTF-8"?>
<!DOCTYPE svg PUBLIC "-//W3C//DTD SVG 1.1//EN" "http://www.w3.org/Graphics/SVG/1.1/DTD/svg11.dtd">
<svg version="1.1" xmlns="http://www.w3.org/2000/svg" xmlns:xlink="http://www.w3.org/1999/xlink" x="0" y="0" width="100" height="100" viewBox="0, 0, 100, 100">
  <defs>
    <clipPath id="Clip_1">
      <path d="M68.019,41 L68.019,59 L64.519,59 L64.519,41 L68.019,41 z"/>
    </clipPath>
    <filter id="Shadow_2">
      <feGaussianBlur in="SourceAlpha" stdDeviation="2.5"/>
      <feOffset dx="0" dy="0" result="offsetblur"/>
      <feFlood flood-color="#FFF400"/>
      <feComposite in2="offsetblur" operator="in"/>
    </filter>
  </defs>
  <g id="Layer_2">
    <g>
      <path d="M74.355,45 C77.661,45 80.341,47.238 80.341,50 C80.341,52.762 77.661,55 74.355,55 L67.173,55 L67.173,45 L74.355,45 z" fill="#959595"/>
      <path d="M74.355,45 C77.661,45 80.341,47.238 80.341,50 C80.341,52.762 77.661,55 74.355,55 L67.173,55 L67.173,45 L74.355,45 z M74.355,46 L68.173,46 L68.173,54 L74.355,54 C77.145,54 79.341,52.166 79.341,50 C79.341,47.834 77.145,46 74.355,46 z" fill="#505050"/>
    </g>
    <g>
      <path d="M26.844,55 C23.538,55 20.858,52.762 20.858,50 C20.858,47.238 23.538,45 26.844,45 L34.027,45 L34.027,55 L26.844,55 z" fill="#959595"/>
      <path d="M34.027,45 L34.027,55 L26.844,55 C23.538,55 20.858,52.762 20.858,50 C20.858,47.238 23.538,45 26.844,45 L34.027,45 z M33.027,46 L26.844,46 C24.054,46 21.858,47.834 21.858,50 C21.858,52.166 24.054,54 26.844,54 L33.027,54 L33.027,46 z" fill="#505050"/>
    </g>
    <g>
      <path d="M70,41 L70,50 L70,50 L70,59 L64.529,59 C61.366,58.735 60.346,57.985 58.312,57.965 C55.455,57.938 52.597,57.982 49.74,57.97 C41.521,57.935 47.229,57.968 41.688,57.965 C39.889,57.966 37.509,59.017 35.471,59 L35.471,58.999 C33.434,58.982 30.001,59 30,59 L30,50 L30,50 L30,41 C30,41.001 33.434,41.018 35.471,41.001 L35.471,41 C37.508,40.983 39.889,41.808 41.688,41.808 L49.74,41.802 C52.597,41.804 55.455,41.806 58.312,41.807 C60.111,41.807 62.492,40.983 64.529,41 C66.353,41.012 68.176,41.01 70,41 z" fill="#D8BE83"/>
      <path d="M70,41 L70,50 L70,50 L70,59 L64.529,59 C61.366,58.735 60.346,57.985 58.312,57.965 C55.455,57.938 52.597,57.982 49.74,57.97 C41.521,57.935 47.229,57.968 41.688,57.965 C39.889,57.966 37.509,59.017 35.471,59 L35.471,58.999 C33.434,58.982 30.001,59 30,59 L30,50 L30,50 L30,41 C30,41.001 33.434,41.018 35.471,41.001 L35.471,41 C37.508,40.983 39.889,41.808 41.688,41.808 L49.74,41.802 C52.597,41.804 55.455,41.806 58.312,41.807 C60.111,41.807 62.492,40.983 64.529,41 C66.353,41.012 68.176,41.01 70,41 z M64.521,42 C63.92,41.995 63.245,42.07 62.339,42.228 C62.096,42.271 61.867,42.313 61.484,42.386 C59.761,42.713 59.137,42.807 58.312,42.807 L58.295,42.807 C56.197,42.807 54.518,42.806 50.741,42.803 C50.24,42.802 50.24,42.802 49.741,42.802 L41.688,42.808 C40.863,42.808 40.238,42.713 38.515,42.386 C38.132,42.314 37.902,42.271 37.66,42.229 C36.136,42.007 36.86,42.075 35.49,42.001 L35.479,42.001 C34.582,42.008 33.354,42.01 31.969,42.007 C31.161,42.005 31.484,42.006 31,42.005 L31,49 L31,50 L31,57.996 C31.489,57.994 31.166,57.995 31.97,57.993 C33.363,57.99 34.583,57.992 35.479,57.999 L35.491,57.999 C36.831,57.903 36.121,57.99 37.615,57.71 C37.854,57.657 38.081,57.603 38.46,57.511 C40.204,57.087 40.838,56.965 41.689,56.965 C43.312,56.966 44.068,56.964 44.424,56.96 C44.528,56.958 44.528,56.958 44.608,56.957 C44.958,56.951 45.674,56.953 49.744,56.97 C50.549,56.974 51.376,56.973 52.457,56.969 C52.752,56.968 52.988,56.967 53.518,56.964 C55.917,56.954 56.985,56.953 58.321,56.965 C58.989,56.972 59.586,57.046 60.271,57.192 C60.602,57.262 61.75,57.544 61.792,57.554 C62.739,57.776 63.566,57.916 64.529,58 L69,58 L69,51 L69,51 L69,42.003 L67.145,42.008 L64.521,42 z" fill="#C5AA6D"/>
    </g>
    <path d="M32.415,41 L36.415,41 L36.415,59 L32.415,59 L32.415,41 z" fill="#EDBA17"/>
    <path d="M41.521,41.738 L45.521,41.738 L45.521,57.917 L41.521,57.917 L41.521,41.738 z" fill="#EDBA17"/>
    <path d="M48,41.738 L52,41.738 L52,57.917 L48,57.917 L48,41.738 z" fill="#89681F"/>
    <g>
      <path d="M64.519,41 L68.019,41 L68.019,59 L64.519,59 L64.519,41 z" fill="#E0F70A"/>
      <g>
        <path d="M58.519,35 L74.019,35 L74.019,65 L58.519,65 z M68.019,41 L64.519,41 L64.519,59 L68.019,59 L68.019,41 z" fill="rgba(0,0,0,0.75)" clip-path="url(#Clip_1)" filter="url(#Shadow_2)"/>
        <path d="M58.519,36.25 L74.019,36.25 L72.769,35 L72.769,65 L74.019,63.75 L58.519,63.75 L59.769,65 L59.769,35 L58.519,36.25 z M58.519,33.75 C57.828,33.75 57.269,34.31 57.269,35 L57.269,65 C57.269,65.69 57.828,66.25 58.519,66.25 L74.019,66.25 C74.709,66.25 75.269,65.69 75.269,65 L75.269,35 C75.269,34.31 74.709,33.75 74.019,33.75 L58.519,33.75 z M68.019,39.75 L64.519,39.75 C63.828,39.75 63.269,40.31 63.269,41 L63.269,59 C63.269,59.69 63.828,60.25 64.519,60.25 L68.019,60.25 C68.709,60.25 69.269,59.69 69.269,59 L69.269,41 C69.269,40.31 68.709,39.75 68.019,39.75 z M68.019,42.25 L66.769,41 L66.769,59 L68.019,57.75 L64.519,57.75 L65.769,59 L65.769,41 L64.519,42.25 L68.019,42.25 z" fill="rgba(0,0,0,0.75)" clip-path="url(#Clip_1)" filter="url(#Shadow_2)"/>
      </g>
    </g>
  </g>
</svg>
